ISO-10303-21;
HEADER;
/* Generated by software containing ST-Developer
 * from STEP Tools, Inc. (www.steptools.com) 
 */

FILE_DESCRIPTION(
/* description */ (''),
/* implementation_level */ '2;1');

FILE_NAME(
/* name */ 'conector.step',
/* time_stamp */ '2026-09-19T19:53:10+03:00',
/* author */ (''),
/* organization */ (''),
/* preprocessor_version */ 'ST-DEVELOPER v20.2',
/* originating_system */ 'Autodesk Translation Framework v15.15.0.0',
/* authorisation */ '');

FILE_SCHEMA (('AUTOMOTIVE_DESIGN { 1 0 10303 214 3 1 1 }'));
ENDSEC;

DATA;
#10=MECHANICAL_DESIGN_GEOMETRIC_PRESENTATION_REPRESENTATION('',(#13),#552);
#11=SHAPE_REPRESENTATION_RELATIONSHIP('SRR','None',#559,#12);
#12=ADVANCED_BREP_SHAPE_REPRESENTATION('',(#14),#551);
#13=STYLED_ITEM('',(#568),#14);
#14=MANIFOLD_SOLID_BREP('Body1',#340);
#15=CYLINDRICAL_SURFACE('',#356,0.500000007450581);
#16=FACE_BOUND('',#38,.T.);
#17=FACE_BOUND('',#55,.T.);
#18=CIRCLE('',#355,0.500000007450581);
#19=CIRCLE('',#357,0.500000007450581);
#20=FACE_OUTER_BOUND('',#37,.T.);
#21=FACE_OUTER_BOUND('',#39,.T.);
#22=FACE_OUTER_BOUND('',#40,.T.);
#23=FACE_OUTER_BOUND('',#41,.T.);
#24=FACE_OUTER_BOUND('',#42,.T.);
#25=FACE_OUTER_BOUND('',#43,.T.);
#26=FACE_OUTER_BOUND('',#44,.T.);
#27=FACE_OUTER_BOUND('',#45,.T.);
#28=FACE_OUTER_BOUND('',#46,.T.);
#29=FACE_OUTER_BOUND('',#47,.T.);
#30=FACE_OUTER_BOUND('',#48,.T.);
#31=FACE_OUTER_BOUND('',#49,.T.);
#32=FACE_OUTER_BOUND('',#50,.T.);
#33=FACE_OUTER_BOUND('',#51,.T.);
#34=FACE_OUTER_BOUND('',#52,.T.);
#35=FACE_OUTER_BOUND('',#53,.T.);
#36=FACE_OUTER_BOUND('',#54,.T.);
#37=EDGE_LOOP('',(#217,#218,#219,#220,#221,#222,#223,#224,#225,#226,#227,
#228,#229,#230));
#38=EDGE_LOOP('',(#231));
#39=EDGE_LOOP('',(#232,#233,#234,#235));
#40=EDGE_LOOP('',(#236,#237,#238,#239));
#41=EDGE_LOOP('',(#240,#241,#242,#243));
#42=EDGE_LOOP('',(#244,#245,#246,#247));
#43=EDGE_LOOP('',(#248,#249,#250,#251));
#44=EDGE_LOOP('',(#252,#253,#254,#255));
#45=EDGE_LOOP('',(#256,#257,#258,#259));
#46=EDGE_LOOP('',(#260,#261,#262,#263));
#47=EDGE_LOOP('',(#264,#265,#266,#267));
#48=EDGE_LOOP('',(#268,#269,#270,#271));
#49=EDGE_LOOP('',(#272,#273,#274,#275));
#50=EDGE_LOOP('',(#276,#277,#278,#279));
#51=EDGE_LOOP('',(#280,#281,#282,#283));
#52=EDGE_LOOP('',(#284,#285,#286,#287));
#53=EDGE_LOOP('',(#288,#289,#290,#291));
#54=EDGE_LOOP('',(#292,#293,#294,#295,#296,#297,#298,#299,#300,#301,#302,
#303,#304,#305));
#55=EDGE_LOOP('',(#306));
#56=LINE('',#460,#99);
#57=LINE('',#462,#100);
#58=LINE('',#464,#101);
#59=LINE('',#466,#102);
#60=LINE('',#468,#103);
#61=LINE('',#470,#104);
#62=LINE('',#472,#105);
#63=LINE('',#474,#106);
#64=LINE('',#476,#107);
#65=LINE('',#478,#108);
#66=LINE('',#480,#109);
#67=LINE('',#482,#110);
#68=LINE('',#484,#111);
#69=LINE('',#485,#112);
#70=LINE('',#491,#113);
#71=LINE('',#494,#114);
#72=LINE('',#496,#115);
#73=LINE('',#497,#116);
#74=LINE('',#500,#117);
#75=LINE('',#501,#118);
#76=LINE('',#504,#119);
#77=LINE('',#505,#120);
#78=LINE('',#508,#121);
#79=LINE('',#509,#122);
#80=LINE('',#512,#123);
#81=LINE('',#513,#124);
#82=LINE('',#516,#125);
#83=LINE('',#517,#126);
#84=LINE('',#520,#127);
#85=LINE('',#521,#128);
#86=LINE('',#524,#129);
#87=LINE('',#525,#130);
#88=LINE('',#528,#131);
#89=LINE('',#529,#132);
#90=LINE('',#532,#133);
#91=LINE('',#533,#134);
#92=LINE('',#536,#135);
#93=LINE('',#537,#136);
#94=LINE('',#540,#137);
#95=LINE('',#541,#138);
#96=LINE('',#544,#139);
#97=LINE('',#545,#140);
#98=LINE('',#547,#141);
#99=VECTOR('',#377,10.);
#100=VECTOR('',#378,10.);
#101=VECTOR('',#379,10.);
#102=VECTOR('',#380,10.);
#103=VECTOR('',#381,10.);
#104=VECTOR('',#382,10.);
#105=VECTOR('',#383,10.);
#106=VECTOR('',#384,10.);
#107=VECTOR('',#385,10.);
#108=VECTOR('',#386,10.);
#109=VECTOR('',#387,10.);
#110=VECTOR('',#388,10.);
#111=VECTOR('',#389,10.);
#112=VECTOR('',#390,10.);
#113=VECTOR('',#397,0.500000007450581);
#114=VECTOR('',#400,10.);
#115=VECTOR('',#401,10.);
#116=VECTOR('',#402,10.);
#117=VECTOR('',#405,10.);
#118=VECTOR('',#406,10.);
#119=VECTOR('',#409,10.);
#120=VECTOR('',#410,10.);
#121=VECTOR('',#413,10.);
#122=VECTOR('',#414,10.);
#123=VECTOR('',#417,10.);
#124=VECTOR('',#418,10.);
#125=VECTOR('',#421,10.);
#126=VECTOR('',#422,10.);
#127=VECTOR('',#425,10.);
#128=VECTOR('',#426,10.);
#129=VECTOR('',#429,10.);
#130=VECTOR('',#430,10.);
#131=VECTOR('',#433,10.);
#132=VECTOR('',#434,10.);
#133=VECTOR('',#437,10.);
#134=VECTOR('',#438,10.);
#135=VECTOR('',#441,10.);
#136=VECTOR('',#442,10.);
#137=VECTOR('',#445,10.);
#138=VECTOR('',#446,10.);
#139=VECTOR('',#449,10.);
#140=VECTOR('',#450,10.);
#141=VECTOR('',#453,10.);
#142=VERTEX_POINT('',#458);
#143=VERTEX_POINT('',#459);
#144=VERTEX_POINT('',#461);
#145=VERTEX_POINT('',#463);
#146=VERTEX_POINT('',#465);
#147=VERTEX_POINT('',#467);
#148=VERTEX_POINT('',#469);
#149=VERTEX_POINT('',#471);
#150=VERTEX_POINT('',#473);
#151=VERTEX_POINT('',#475);
#152=VERTEX_POINT('',#477);
#153=VERTEX_POINT('',#479);
#154=VERTEX_POINT('',#481);
#155=VERTEX_POINT('',#483);
#156=VERTEX_POINT('',#486);
#157=VERTEX_POINT('',#489);
#158=VERTEX_POINT('',#493);
#159=VERTEX_POINT('',#495);
#160=VERTEX_POINT('',#499);
#161=VERTEX_POINT('',#503);
#162=VERTEX_POINT('',#507);
#163=VERTEX_POINT('',#511);
#164=VERTEX_POINT('',#515);
#165=VERTEX_POINT('',#519);
#166=VERTEX_POINT('',#523);
#167=VERTEX_POINT('',#527);
#168=VERTEX_POINT('',#531);
#169=VERTEX_POINT('',#535);
#170=VERTEX_POINT('',#539);
#171=VERTEX_POINT('',#543);
#172=EDGE_CURVE('',#142,#143,#56,.T.);
#173=EDGE_CURVE('',#143,#144,#57,.T.);
#174=EDGE_CURVE('',#144,#145,#58,.T.);
#175=EDGE_CURVE('',#145,#146,#59,.T.);
#176=EDGE_CURVE('',#146,#147,#60,.T.);
#177=EDGE_CURVE('',#147,#148,#61,.T.);
#178=EDGE_CURVE('',#148,#149,#62,.T.);
#179=EDGE_CURVE('',#149,#150,#63,.T.);
#180=EDGE_CURVE('',#150,#151,#64,.T.);
#181=EDGE_CURVE('',#151,#152,#65,.T.);
#182=EDGE_CURVE('',#152,#153,#66,.T.);
#183=EDGE_CURVE('',#153,#154,#67,.T.);
#184=EDGE_CURVE('',#154,#155,#68,.T.);
#185=EDGE_CURVE('',#155,#142,#69,.T.);
#186=EDGE_CURVE('',#156,#156,#18,.T.);
#187=EDGE_CURVE('',#157,#157,#19,.T.);
#188=EDGE_CURVE('',#157,#156,#70,.T.);
#189=EDGE_CURVE('',#158,#143,#71,.T.);
#190=EDGE_CURVE('',#159,#158,#72,.T.);
#191=EDGE_CURVE('',#144,#159,#73,.T.);
#192=EDGE_CURVE('',#160,#159,#74,.T.);
#193=EDGE_CURVE('',#145,#160,#75,.T.);
#194=EDGE_CURVE('',#161,#160,#76,.T.);
#195=EDGE_CURVE('',#146,#161,#77,.T.);
#196=EDGE_CURVE('',#162,#161,#78,.T.);
#197=EDGE_CURVE('',#147,#162,#79,.T.);
#198=EDGE_CURVE('',#163,#162,#80,.T.);
#199=EDGE_CURVE('',#148,#163,#81,.T.);
#200=EDGE_CURVE('',#164,#163,#82,.T.);
#201=EDGE_CURVE('',#149,#164,#83,.T.);
#202=EDGE_CURVE('',#165,#164,#84,.T.);
#203=EDGE_CURVE('',#150,#165,#85,.T.);
#204=EDGE_CURVE('',#166,#165,#86,.T.);
#205=EDGE_CURVE('',#151,#166,#87,.T.);
#206=EDGE_CURVE('',#167,#166,#88,.T.);
#207=EDGE_CURVE('',#152,#167,#89,.T.);
#208=EDGE_CURVE('',#168,#167,#90,.T.);
#209=EDGE_CURVE('',#153,#168,#91,.T.);
#210=EDGE_CURVE('',#169,#168,#92,.T.);
#211=EDGE_CURVE('',#154,#169,#93,.T.);
#212=EDGE_CURVE('',#170,#169,#94,.T.);
#213=EDGE_CURVE('',#155,#170,#95,.T.);
#214=EDGE_CURVE('',#171,#170,#96,.T.);
#215=EDGE_CURVE('',#142,#171,#97,.T.);
#216=EDGE_CURVE('',#158,#171,#98,.T.);
#217=ORIENTED_EDGE('',*,*,#172,.T.);
#218=ORIENTED_EDGE('',*,*,#173,.T.);
#219=ORIENTED_EDGE('',*,*,#174,.T.);
#220=ORIENTED_EDGE('',*,*,#175,.T.);
#221=ORIENTED_EDGE('',*,*,#176,.T.);
#222=ORIENTED_EDGE('',*,*,#177,.T.);
#223=ORIENTED_EDGE('',*,*,#178,.T.);
#224=ORIENTED_EDGE('',*,*,#179,.T.);
#225=ORIENTED_EDGE('',*,*,#180,.T.);
#226=ORIENTED_EDGE('',*,*,#181,.T.);
#227=ORIENTED_EDGE('',*,*,#182,.T.);
#228=ORIENTED_EDGE('',*,*,#183,.T.);
#229=ORIENTED_EDGE('',*,*,#184,.T.);
#230=ORIENTED_EDGE('',*,*,#185,.T.);
#231=ORIENTED_EDGE('',*,*,#186,.T.);
#232=ORIENTED_EDGE('',*,*,#187,.F.);
#233=ORIENTED_EDGE('',*,*,#188,.T.);
#234=ORIENTED_EDGE('',*,*,#186,.F.);
#235=ORIENTED_EDGE('',*,*,#188,.F.);
#236=ORIENTED_EDGE('',*,*,#189,.F.);
#237=ORIENTED_EDGE('',*,*,#190,.F.);
#238=ORIENTED_EDGE('',*,*,#191,.F.);
#239=ORIENTED_EDGE('',*,*,#173,.F.);
#240=ORIENTED_EDGE('',*,*,#191,.T.);
#241=ORIENTED_EDGE('',*,*,#192,.F.);
#242=ORIENTED_EDGE('',*,*,#193,.F.);
#243=ORIENTED_EDGE('',*,*,#174,.F.);
#244=ORIENTED_EDGE('',*,*,#193,.T.);
#245=ORIENTED_EDGE('',*,*,#194,.F.);
#246=ORIENTED_EDGE('',*,*,#195,.F.);
#247=ORIENTED_EDGE('',*,*,#175,.F.);
#248=ORIENTED_EDGE('',*,*,#195,.T.);
#249=ORIENTED_EDGE('',*,*,#196,.F.);
#250=ORIENTED_EDGE('',*,*,#197,.F.);
#251=ORIENTED_EDGE('',*,*,#176,.F.);
#252=ORIENTED_EDGE('',*,*,#197,.T.);
#253=ORIENTED_EDGE('',*,*,#198,.F.);
#254=ORIENTED_EDGE('',*,*,#199,.F.);
#255=ORIENTED_EDGE('',*,*,#177,.F.);
#256=ORIENTED_EDGE('',*,*,#199,.T.);
#257=ORIENTED_EDGE('',*,*,#200,.F.);
#258=ORIENTED_EDGE('',*,*,#201,.F.);
#259=ORIENTED_EDGE('',*,*,#178,.F.);
#260=ORIENTED_EDGE('',*,*,#201,.T.);
#261=ORIENTED_EDGE('',*,*,#202,.F.);
#262=ORIENTED_EDGE('',*,*,#203,.F.);
#263=ORIENTED_EDGE('',*,*,#179,.F.);
#264=ORIENTED_EDGE('',*,*,#203,.T.);
#265=ORIENTED_EDGE('',*,*,#204,.F.);
#266=ORIENTED_EDGE('',*,*,#205,.F.);
#267=ORIENTED_EDGE('',*,*,#180,.F.);
#268=ORIENTED_EDGE('',*,*,#205,.T.);
#269=ORIENTED_EDGE('',*,*,#206,.F.);
#270=ORIENTED_EDGE('',*,*,#207,.F.);
#271=ORIENTED_EDGE('',*,*,#181,.F.);
#272=ORIENTED_EDGE('',*,*,#207,.T.);
#273=ORIENTED_EDGE('',*,*,#208,.F.);
#274=ORIENTED_EDGE('',*,*,#209,.F.);
#275=ORIENTED_EDGE('',*,*,#182,.F.);
#276=ORIENTED_EDGE('',*,*,#209,.T.);
#277=ORIENTED_EDGE('',*,*,#210,.F.);
#278=ORIENTED_EDGE('',*,*,#211,.F.);
#279=ORIENTED_EDGE('',*,*,#183,.F.);
#280=ORIENTED_EDGE('',*,*,#211,.T.);
#281=ORIENTED_EDGE('',*,*,#212,.F.);
#282=ORIENTED_EDGE('',*,*,#213,.F.);
#283=ORIENTED_EDGE('',*,*,#184,.F.);
#284=ORIENTED_EDGE('',*,*,#213,.T.);
#285=ORIENTED_EDGE('',*,*,#214,.F.);
#286=ORIENTED_EDGE('',*,*,#215,.F.);
#287=ORIENTED_EDGE('',*,*,#185,.F.);
#288=ORIENTED_EDGE('',*,*,#215,.T.);
#289=ORIENTED_EDGE('',*,*,#216,.F.);
#290=ORIENTED_EDGE('',*,*,#189,.T.);
#291=ORIENTED_EDGE('',*,*,#172,.F.);
#292=ORIENTED_EDGE('',*,*,#216,.T.);
#293=ORIENTED_EDGE('',*,*,#214,.T.);
#294=ORIENTED_EDGE('',*,*,#212,.T.);
#295=ORIENTED_EDGE('',*,*,#210,.T.);
#296=ORIENTED_EDGE('',*,*,#208,.T.);
#297=ORIENTED_EDGE('',*,*,#206,.T.);
#298=ORIENTED_EDGE('',*,*,#204,.T.);
#299=ORIENTED_EDGE('',*,*,#202,.T.);
#300=ORIENTED_EDGE('',*,*,#200,.T.);
#301=ORIENTED_EDGE('',*,*,#198,.T.);
#302=ORIENTED_EDGE('',*,*,#196,.T.);
#303=ORIENTED_EDGE('',*,*,#194,.T.);
#304=ORIENTED_EDGE('',*,*,#192,.T.);
#305=ORIENTED_EDGE('',*,*,#190,.T.);
#306=ORIENTED_EDGE('',*,*,#187,.T.);
#307=PLANE('',#354);
#308=PLANE('',#358);
#309=PLANE('',#359);
#310=PLANE('',#360);
#311=PLANE('',#361);
#312=PLANE('',#362);
#313=PLANE('',#363);
#314=PLANE('',#364);
#315=PLANE('',#365);
#316=PLANE('',#366);
#317=PLANE('',#367);
#318=PLANE('',#368);
#319=PLANE('',#369);
#320=PLANE('',#370);
#321=PLANE('',#371);
#322=PLANE('',#372);
#323=ADVANCED_FACE('',(#20,#16),#307,.F.);
#324=ADVANCED_FACE('',(#21),#15,.F.);
#325=ADVANCED_FACE('',(#22),#308,.T.);
#326=ADVANCED_FACE('',(#23),#309,.T.);
#327=ADVANCED_FACE('',(#24),#310,.T.);
#328=ADVANCED_FACE('',(#25),#311,.T.);
#329=ADVANCED_FACE('',(#26),#312,.T.);
#330=ADVANCED_FACE('',(#27),#313,.T.);
#331=ADVANCED_FACE('',(#28),#314,.T.);
#332=ADVANCED_FACE('',(#29),#315,.T.);
#333=ADVANCED_FACE('',(#30),#316,.T.);
#334=ADVANCED_FACE('',(#31),#317,.T.);
#335=ADVANCED_FACE('',(#32),#318,.T.);
#336=ADVANCED_FACE('',(#33),#319,.T.);
#337=ADVANCED_FACE('',(#34),#320,.T.);
#338=ADVANCED_FACE('',(#35),#321,.T.);
#339=ADVANCED_FACE('',(#36,#17),#322,.T.);
#340=CLOSED_SHELL('',(#323,#324,#325,#326,#327,#328,#329,#330,#331,#332,
#333,#334,#335,#336,#337,#338,#339));
#341=DERIVED_UNIT_ELEMENT(#343,1.);
#342=DERIVED_UNIT_ELEMENT(#554,-3.);
#343=(
MASS_UNIT()
NAMED_UNIT(*)
SI_UNIT(.KILO.,.GRAM.)
);
#344=DERIVED_UNIT((#341,#342));
#345=MEASURE_REPRESENTATION_ITEM('density measure',
POSITIVE_RATIO_MEASURE(7850.),#344);
#346=PROPERTY_DEFINITION_REPRESENTATION(#351,#348);
#347=PROPERTY_DEFINITION_REPRESENTATION(#352,#349);
#348=REPRESENTATION('material name',(#350),#551);
#349=REPRESENTATION('density',(#345),#551);
#350=DESCRIPTIVE_REPRESENTATION_ITEM('Steel','Steel');
#351=PROPERTY_DEFINITION('material property','material name',#561);
#352=PROPERTY_DEFINITION('material property','density of part',#561);
#353=AXIS2_PLACEMENT_3D('',#456,#373,#374);
#354=AXIS2_PLACEMENT_3D('',#457,#375,#376);
#355=AXIS2_PLACEMENT_3D('',#487,#391,#392);
#356=AXIS2_PLACEMENT_3D('',#488,#393,#394);
#357=AXIS2_PLACEMENT_3D('',#490,#395,#396);
#358=AXIS2_PLACEMENT_3D('',#492,#398,#399);
#359=AXIS2_PLACEMENT_3D('',#498,#403,#404);
#360=AXIS2_PLACEMENT_3D('',#502,#407,#408);
#361=AXIS2_PLACEMENT_3D('',#506,#411,#412);
#362=AXIS2_PLACEMENT_3D('',#510,#415,#416);
#363=AXIS2_PLACEMENT_3D('',#514,#419,#420);
#364=AXIS2_PLACEMENT_3D('',#518,#423,#424);
#365=AXIS2_PLACEMENT_3D('',#522,#427,#428);
#366=AXIS2_PLACEMENT_3D('',#526,#431,#432);
#367=AXIS2_PLACEMENT_3D('',#530,#435,#436);
#368=AXIS2_PLACEMENT_3D('',#534,#439,#440);
#369=AXIS2_PLACEMENT_3D('',#538,#443,#444);
#370=AXIS2_PLACEMENT_3D('',#542,#447,#448);
#371=AXIS2_PLACEMENT_3D('',#546,#451,#452);
#372=AXIS2_PLACEMENT_3D('',#548,#454,#455);
#373=DIRECTION('axis',(0.,0.,1.));
#374=DIRECTION('refdir',(1.,0.,0.));
#375=DIRECTION('center_axis',(0.,0.,1.));
#376=DIRECTION('ref_axis',(1.,0.,0.));
#377=DIRECTION('',(-1.,1.11022302462516E-15,0.));
#378=DIRECTION('',(1.80068922735662E-12,1.,0.));
#379=DIRECTION('',(-1.,0.,0.));
#380=DIRECTION('',(1.28684100412594E-12,-1.,0.));
#381=DIRECTION('',(-1.,-1.11022302462516E-15,0.));
#382=DIRECTION('',(-3.70074341541719E-16,1.,0.));
#383=DIRECTION('',(1.,8.7407858730023E-12,0.));
#384=DIRECTION('',(-1.8503717077086E-15,1.,0.));
#385=DIRECTION('',(0.70710678118655,0.707106781186545,0.));
#386=DIRECTION('',(1.,1.48029736616325E-15,0.));
#387=DIRECTION('',(0.707106781186549,-0.707106781186546,0.));
#388=DIRECTION('',(9.71445146547012E-16,-1.,0.));
#389=DIRECTION('',(1.,0.,0.));
#390=DIRECTION('',(1.2887838944181E-13,-1.,0.));
#391=DIRECTION('center_axis',(0.,0.,1.));
#392=DIRECTION('ref_axis',(1.,0.,0.));
#393=DIRECTION('center_axis',(0.,0.,1.));
#394=DIRECTION('ref_axis',(1.,0.,0.));
#395=DIRECTION('center_axis',(0.,0.,-1.));
#396=DIRECTION('ref_axis',(1.,0.,0.));
#397=DIRECTION('',(0.,0.,-1.));
#398=DIRECTION('center_axis',(-1.,1.80068922735662E-12,0.));
#399=DIRECTION('ref_axis',(-1.80068922735662E-12,-1.,0.));
#400=DIRECTION('',(0.,0.,-1.));
#401=DIRECTION('',(-1.80068922735662E-12,-1.,0.));
#402=DIRECTION('',(0.,0.,1.));
#403=DIRECTION('center_axis',(0.,-1.,0.));
#404=DIRECTION('ref_axis',(1.,0.,0.));
#405=DIRECTION('',(1.,0.,0.));
#406=DIRECTION('',(0.,0.,1.));
#407=DIRECTION('center_axis',(1.,1.28684100412594E-12,0.));
#408=DIRECTION('ref_axis',(-1.28684100412594E-12,1.,0.));
#409=DIRECTION('',(-1.28684100412594E-12,1.,0.));
#410=DIRECTION('',(0.,0.,1.));
#411=DIRECTION('center_axis',(1.11022302462516E-15,-1.,0.));
#412=DIRECTION('ref_axis',(1.,1.11022302462516E-15,0.));
#413=DIRECTION('',(1.,1.11022302462516E-15,0.));
#414=DIRECTION('',(0.,0.,1.));
#415=DIRECTION('center_axis',(-1.,-3.70074341541719E-16,0.));
#416=DIRECTION('ref_axis',(3.70074341541719E-16,-1.,0.));
#417=DIRECTION('',(3.70074341541719E-16,-1.,0.));
#418=DIRECTION('',(0.,0.,1.));
#419=DIRECTION('center_axis',(-8.7407858730023E-12,1.,0.));
#420=DIRECTION('ref_axis',(-1.,-8.7407858730023E-12,0.));
#421=DIRECTION('',(-1.,-8.7407858730023E-12,0.));
#422=DIRECTION('',(0.,0.,1.));
#423=DIRECTION('center_axis',(-1.,-1.8503717077086E-15,0.));
#424=DIRECTION('ref_axis',(1.8503717077086E-15,-1.,0.));
#425=DIRECTION('',(1.8503717077086E-15,-1.,0.));
#426=DIRECTION('',(0.,0.,1.));
#427=DIRECTION('center_axis',(-0.707106781186545,0.70710678118655,0.));
#428=DIRECTION('ref_axis',(-0.70710678118655,-0.707106781186545,0.));
#429=DIRECTION('',(-0.70710678118655,-0.707106781186545,0.));
#430=DIRECTION('',(0.,0.,1.));
#431=DIRECTION('center_axis',(-1.48029736616325E-15,1.,0.));
#432=DIRECTION('ref_axis',(-1.,-1.48029736616325E-15,0.));
#433=DIRECTION('',(-1.,-1.48029736616325E-15,0.));
#434=DIRECTION('',(0.,0.,1.));
#435=DIRECTION('center_axis',(0.707106781186546,0.707106781186549,0.));
#436=DIRECTION('ref_axis',(-0.707106781186549,0.707106781186546,0.));
#437=DIRECTION('',(-0.707106781186549,0.707106781186546,0.));
#438=DIRECTION('',(0.,0.,1.));
#439=DIRECTION('center_axis',(1.,9.71445146547012E-16,0.));
#440=DIRECTION('ref_axis',(-9.71445146547012E-16,1.,0.));
#441=DIRECTION('',(-9.71445146547012E-16,1.,0.));
#442=DIRECTION('',(0.,0.,1.));
#443=DIRECTION('center_axis',(0.,1.,0.));
#444=DIRECTION('ref_axis',(-1.,0.,0.));
#445=DIRECTION('',(-1.,0.,0.));
#446=DIRECTION('',(0.,0.,1.));
#447=DIRECTION('center_axis',(1.,1.2887838944181E-13,0.));
#448=DIRECTION('ref_axis',(-1.2887838944181E-13,1.,0.));
#449=DIRECTION('',(-1.2887838944181E-13,1.,0.));
#450=DIRECTION('',(0.,0.,1.));
#451=DIRECTION('center_axis',(-1.11022302462516E-15,-1.,0.));
#452=DIRECTION('ref_axis',(1.,-1.11022302462516E-15,0.));
#453=DIRECTION('',(1.,-1.11022302462516E-15,0.));
#454=DIRECTION('center_axis',(0.,0.,1.));
#455=DIRECTION('ref_axis',(1.,0.,0.));
#456=CARTESIAN_POINT('',(0.,0.,0.));
#457=CARTESIAN_POINT('Origin',(-7.64943663966733E-13,3.50000000000218,-0.3));
#458=CARTESIAN_POINT('',(2.99999999999924,-3.,-0.3));
#459=CARTESIAN_POINT('',(1.99999999999924,-3.,-0.3));
#460=CARTESIAN_POINT('',(2.99999999999924,-3.,-0.3));
#461=CARTESIAN_POINT('',(2.00000000000464,0.,-0.3));
#462=CARTESIAN_POINT('',(1.99999999999924,-3.,-0.3));
#463=CARTESIAN_POINT('',(-2.00000000000462,0.,-0.3));
#464=CARTESIAN_POINT('',(-2.00000000000462,0.,-0.3));
#465=CARTESIAN_POINT('',(-2.00000000000076,-3.,-0.3));
#466=CARTESIAN_POINT('',(-2.00000000000462,0.,-0.3));
#467=CARTESIAN_POINT('',(-3.00000000000076,-3.,-0.3));
#468=CARTESIAN_POINT('',(-2.00000000000076,-3.,-0.3));
#469=CARTESIAN_POINT('',(-3.00000000000077,3.,-0.3));
#470=CARTESIAN_POINT('',(-3.00000000000076,-3.,-0.3));
#471=CARTESIAN_POINT('',(-2.50000000000811,3.00000000000437,-0.3));
#472=CARTESIAN_POINT('',(-2.50000000000811,3.00000000000437,-0.3));
#473=CARTESIAN_POINT('',(-2.50000000000812,9.00000000000436,-0.3));
#474=CARTESIAN_POINT('',(-2.50000000000812,9.00000000000436,-0.3));
#475=CARTESIAN_POINT('',(-1.50000000000812,10.0000000000044,-0.3));
#476=CARTESIAN_POINT('',(-1.50000000000812,10.0000000000044,-0.3));
#477=CARTESIAN_POINT('',(1.49999999999924,10.0000000000044,-0.3));
#478=CARTESIAN_POINT('',(1.49999999999924,10.0000000000044,-0.3));
#479=CARTESIAN_POINT('',(2.49999999999924,9.00000000000437,-0.3));
#480=CARTESIAN_POINT('',(2.49999999999924,9.00000000000437,-0.3));
#481=CARTESIAN_POINT('',(2.49999999999924,3.00000000000437,-0.3));
#482=CARTESIAN_POINT('',(2.49999999999924,3.00000000000437,-0.3));
#483=CARTESIAN_POINT('',(2.99999999999846,3.00000000000437,-0.3));
#484=CARTESIAN_POINT('',(2.99999999999846,3.00000000000437,-0.3));
#485=CARTESIAN_POINT('',(2.99999999999924,-3.,-0.3));
#486=CARTESIAN_POINT('',(-0.500000007450581,7.00000000000437,-0.3));
#487=CARTESIAN_POINT('Origin',(0.,7.00000000000437,-0.3));
#488=CARTESIAN_POINT('Origin',(0.,7.00000000000437,0.));
#489=CARTESIAN_POINT('',(-0.500000007450581,7.00000000000437,0.3));
#490=CARTESIAN_POINT('Origin',(0.,7.00000000000437,0.3));
#491=CARTESIAN_POINT('',(-0.500000007450581,7.00000000000437,0.));
#492=CARTESIAN_POINT('Origin',(2.00000000000464,0.,0.));
#493=CARTESIAN_POINT('',(1.99999999999924,-3.,0.3));
#494=CARTESIAN_POINT('',(1.99999999999924,-3.,0.));
#495=CARTESIAN_POINT('',(2.00000000000464,0.,0.3));
#496=CARTESIAN_POINT('',(1.99999999999924,-3.,0.3));
#497=CARTESIAN_POINT('',(2.00000000000464,0.,0.));
#498=CARTESIAN_POINT('Origin',(-2.00000000000462,0.,0.));
#499=CARTESIAN_POINT('',(-2.00000000000462,0.,0.3));
#500=CARTESIAN_POINT('',(-2.00000000000462,0.,0.3));
#501=CARTESIAN_POINT('',(-2.00000000000462,0.,0.));
#502=CARTESIAN_POINT('Origin',(-2.00000000000076,-3.,0.));
#503=CARTESIAN_POINT('',(-2.00000000000076,-3.,0.3));
#504=CARTESIAN_POINT('',(-2.00000000000462,0.,0.3));
#505=CARTESIAN_POINT('',(-2.00000000000076,-3.,0.));
#506=CARTESIAN_POINT('Origin',(-3.00000000000076,-3.,0.));
#507=CARTESIAN_POINT('',(-3.00000000000076,-3.,0.3));
#508=CARTESIAN_POINT('',(-2.00000000000076,-3.,0.3));
#509=CARTESIAN_POINT('',(-3.00000000000076,-3.,0.));
#510=CARTESIAN_POINT('Origin',(-3.00000000000077,3.,0.));
#511=CARTESIAN_POINT('',(-3.00000000000077,3.,0.3));
#512=CARTESIAN_POINT('',(-3.00000000000076,-3.,0.3));
#513=CARTESIAN_POINT('',(-3.00000000000077,3.,0.));
#514=CARTESIAN_POINT('Origin',(-2.50000000000811,3.00000000000437,0.));
#515=CARTESIAN_POINT('',(-2.50000000000811,3.00000000000437,0.3));
#516=CARTESIAN_POINT('',(-2.50000000000811,3.00000000000437,0.3));
#517=CARTESIAN_POINT('',(-2.50000000000811,3.00000000000437,0.));
#518=CARTESIAN_POINT('Origin',(-2.50000000000812,9.00000000000436,0.));
#519=CARTESIAN_POINT('',(-2.50000000000812,9.00000000000436,0.3));
#520=CARTESIAN_POINT('',(-2.50000000000812,9.00000000000436,0.3));
#521=CARTESIAN_POINT('',(-2.50000000000812,9.00000000000436,0.));
#522=CARTESIAN_POINT('Origin',(-1.50000000000812,10.0000000000044,0.));
#523=CARTESIAN_POINT('',(-1.50000000000812,10.0000000000044,0.3));
#524=CARTESIAN_POINT('',(-1.50000000000812,10.0000000000044,0.3));
#525=CARTESIAN_POINT('',(-1.50000000000812,10.0000000000044,0.));
#526=CARTESIAN_POINT('Origin',(1.49999999999924,10.0000000000044,0.));
#527=CARTESIAN_POINT('',(1.49999999999924,10.0000000000044,0.3));
#528=CARTESIAN_POINT('',(1.49999999999924,10.0000000000044,0.3));
#529=CARTESIAN_POINT('',(1.49999999999924,10.0000000000044,0.));
#530=CARTESIAN_POINT('Origin',(2.49999999999924,9.00000000000437,0.));
#531=CARTESIAN_POINT('',(2.49999999999924,9.00000000000437,0.3));
#532=CARTESIAN_POINT('',(2.49999999999924,9.00000000000437,0.3));
#533=CARTESIAN_POINT('',(2.49999999999924,9.00000000000437,0.));
#534=CARTESIAN_POINT('Origin',(2.49999999999924,3.00000000000437,0.));
#535=CARTESIAN_POINT('',(2.49999999999924,3.00000000000437,0.3));
#536=CARTESIAN_POINT('',(2.49999999999924,3.00000000000437,0.3));
#537=CARTESIAN_POINT('',(2.49999999999924,3.00000000000437,0.));
#538=CARTESIAN_POINT('Origin',(2.99999999999846,3.00000000000437,0.));
#539=CARTESIAN_POINT('',(2.99999999999846,3.00000000000437,0.3));
#540=CARTESIAN_POINT('',(2.99999999999846,3.00000000000437,0.3));
#541=CARTESIAN_POINT('',(2.99999999999846,3.00000000000437,0.));
#542=CARTESIAN_POINT('Origin',(2.99999999999924,-3.,0.));
#543=CARTESIAN_POINT('',(2.99999999999924,-3.,0.3));
#544=CARTESIAN_POINT('',(2.99999999999924,-3.,0.3));
#545=CARTESIAN_POINT('',(2.99999999999924,-3.,0.));
#546=CARTESIAN_POINT('Origin',(1.99999999999924,-3.,0.));
#547=CARTESIAN_POINT('',(2.99999999999924,-3.,0.3));
#548=CARTESIAN_POINT('Origin',(-7.64943663966733E-13,3.50000000000218,0.3));
#549=UNCERTAINTY_MEASURE_WITH_UNIT(LENGTH_MEASURE(0.01),#553,
'DISTANCE_ACCURACY_VALUE',
'Maximum model space distance between geometric entities at asserted c
onnectivities');
#550=UNCERTAINTY_MEASURE_WITH_UNIT(LENGTH_MEASURE(0.01),#553,
'DISTANCE_ACCURACY_VALUE',
'Maximum model space distance between geometric entities at asserted c
onnectivities');
#551=(
GEOMETRIC_REPRESENTATION_CONTEXT(3)
GLOBAL_UNCERTAINTY_ASSIGNED_CONTEXT((#549))
GLOBAL_UNIT_ASSIGNED_CONTEXT((#553,#555,#556))
REPRESENTATION_CONTEXT('','3D')
);
#552=(
GEOMETRIC_REPRESENTATION_CONTEXT(3)
GLOBAL_UNCERTAINTY_ASSIGNED_CONTEXT((#550))
GLOBAL_UNIT_ASSIGNED_CONTEXT((#553,#555,#556))
REPRESENTATION_CONTEXT('','3D')
);
#553=(
LENGTH_UNIT()
NAMED_UNIT(*)
SI_UNIT(.MILLI.,.METRE.)
);
#554=(
LENGTH_UNIT()
NAMED_UNIT(*)
SI_UNIT($,.METRE.)
);
#555=(
NAMED_UNIT(*)
PLANE_ANGLE_UNIT()
SI_UNIT($,.RADIAN.)
);
#556=(
NAMED_UNIT(*)
SI_UNIT($,.STERADIAN.)
SOLID_ANGLE_UNIT()
);
#557=SHAPE_DEFINITION_REPRESENTATION(#558,#559);
#558=PRODUCT_DEFINITION_SHAPE('',$,#561);
#559=SHAPE_REPRESENTATION('',(#353),#551);
#560=PRODUCT_DEFINITION_CONTEXT('part definition',#565,'design');
#561=PRODUCT_DEFINITION('2026-09-19-18-51-21-216','conector',#562,#560);
#562=PRODUCT_DEFINITION_FORMATION('',$,#567);
#563=PRODUCT_RELATED_PRODUCT_CATEGORY('conector','conector',(#567));
#564=APPLICATION_PROTOCOL_DEFINITION('international standard',
'automotive_design',2009,#565);
#565=APPLICATION_CONTEXT(
'Core Data for Automotive Mechanical Design Process');
#566=PRODUCT_CONTEXT('part definition',#565,'mechanical');
#567=PRODUCT('2026-09-19-18-51-21-216','conector',$,(#566));
#568=PRESENTATION_STYLE_ASSIGNMENT((#569));
#569=SURFACE_STYLE_USAGE(.BOTH.,#570);
#570=SURFACE_SIDE_STYLE('',(#571));
#571=SURFACE_STYLE_FILL_AREA(#572);
#572=FILL_AREA_STYLE('Steel - Satin',(#573));
#573=FILL_AREA_STYLE_COLOUR('Steel - Satin',#574);
#574=COLOUR_RGB('Steel - Satin',0.627450980392157,0.627450980392157,0.627450980392157);
ENDSEC;
END-ISO-10303-21;
