ISO-10303-21;
HEADER;
/* Generated by software containing ST-Developer
 * from STEP Tools, Inc. (www.steptools.com) 
 */

FILE_DESCRIPTION(
/* description */ (''),
/* implementation_level */ '2;1');

FILE_NAME(
/* name */ 'switch.step',
/* time_stamp */ '2026-09-19T22:57:14+03:00',
/* author */ (''),
/* organization */ (''),
/* preprocessor_version */ 'ST-DEVELOPER v20.2',
/* originating_system */ 'Autodesk Translation Framework v15.15.0.0',
/* authorisation */ '');

FILE_SCHEMA (('AUTOMOTIVE_DESIGN { 1 0 10303 214 3 1 1 }'));
ENDSEC;

DATA;
#10=MECHANICAL_DESIGN_GEOMETRIC_PRESENTATION_REPRESENTATION('',(#1059,#1060,
#1061,#1062,#1063,#1064,#1065),#1804);
#11=SHAPE_REPRESENTATION_RELATIONSHIP('SRR','None',#1811,#12);
#12=ADVANCED_BREP_SHAPE_REPRESENTATION('',(#13),#1803);
#13=MANIFOLD_SOLID_BREP('Body1',#1128);
#14=FACE_BOUND('',#152,.T.);
#15=FACE_BOUND('',#167,.T.);
#16=FACE_BOUND('',#184,.T.);
#17=FACE_BOUND('',#185,.T.);
#18=FACE_BOUND('',#186,.T.);
#19=FACE_BOUND('',#187,.T.);
#20=FACE_BOUND('',#188,.T.);
#21=FACE_BOUND('',#189,.T.);
#22=PLANE('',#1148);
#23=PLANE('',#1149);
#24=PLANE('',#1150);
#25=PLANE('',#1151);
#26=PLANE('',#1152);
#27=PLANE('',#1153);
#28=PLANE('',#1154);
#29=PLANE('',#1155);
#30=PLANE('',#1156);
#31=PLANE('',#1157);
#32=PLANE('',#1158);
#33=PLANE('',#1159);
#34=PLANE('',#1160);
#35=PLANE('',#1161);
#36=PLANE('',#1162);
#37=PLANE('',#1163);
#38=PLANE('',#1164);
#39=PLANE('',#1165);
#40=PLANE('',#1166);
#41=PLANE('',#1167);
#42=PLANE('',#1168);
#43=PLANE('',#1169);
#44=PLANE('',#1170);
#45=PLANE('',#1171);
#46=PLANE('',#1172);
#47=PLANE('',#1173);
#48=PLANE('',#1174);
#49=PLANE('',#1175);
#50=PLANE('',#1176);
#51=PLANE('',#1177);
#52=PLANE('',#1178);
#53=PLANE('',#1179);
#54=PLANE('',#1180);
#55=PLANE('',#1181);
#56=PLANE('',#1182);
#57=PLANE('',#1183);
#58=PLANE('',#1184);
#59=PLANE('',#1185);
#60=PLANE('',#1186);
#61=PLANE('',#1187);
#62=PLANE('',#1188);
#63=PLANE('',#1189);
#64=PLANE('',#1190);
#65=PLANE('',#1191);
#66=PLANE('',#1192);
#67=PLANE('',#1193);
#68=PLANE('',#1194);
#69=PLANE('',#1195);
#70=PLANE('',#1196);
#71=PLANE('',#1197);
#72=PLANE('',#1198);
#73=PLANE('',#1199);
#74=PLANE('',#1200);
#75=PLANE('',#1201);
#76=PLANE('',#1202);
#77=PLANE('',#1203);
#78=PLANE('',#1204);
#79=PLANE('',#1205);
#80=PLANE('',#1206);
#81=PLANE('',#1207);
#82=PLANE('',#1208);
#83=FACE_OUTER_BOUND('',#145,.T.);
#84=FACE_OUTER_BOUND('',#146,.T.);
#85=FACE_OUTER_BOUND('',#147,.T.);
#86=FACE_OUTER_BOUND('',#148,.T.);
#87=FACE_OUTER_BOUND('',#149,.T.);
#88=FACE_OUTER_BOUND('',#150,.T.);
#89=FACE_OUTER_BOUND('',#151,.T.);
#90=FACE_OUTER_BOUND('',#153,.T.);
#91=FACE_OUTER_BOUND('',#154,.T.);
#92=FACE_OUTER_BOUND('',#155,.T.);
#93=FACE_OUTER_BOUND('',#156,.T.);
#94=FACE_OUTER_BOUND('',#157,.T.);
#95=FACE_OUTER_BOUND('',#158,.T.);
#96=FACE_OUTER_BOUND('',#159,.T.);
#97=FACE_OUTER_BOUND('',#160,.T.);
#98=FACE_OUTER_BOUND('',#161,.T.);
#99=FACE_OUTER_BOUND('',#162,.T.);
#100=FACE_OUTER_BOUND('',#163,.T.);
#101=FACE_OUTER_BOUND('',#164,.T.);
#102=FACE_OUTER_BOUND('',#165,.T.);
#103=FACE_OUTER_BOUND('',#166,.T.);
#104=FACE_OUTER_BOUND('',#168,.T.);
#105=FACE_OUTER_BOUND('',#169,.T.);
#106=FACE_OUTER_BOUND('',#170,.T.);
#107=FACE_OUTER_BOUND('',#171,.T.);
#108=FACE_OUTER_BOUND('',#172,.T.);
#109=FACE_OUTER_BOUND('',#173,.T.);
#110=FACE_OUTER_BOUND('',#174,.T.);
#111=FACE_OUTER_BOUND('',#175,.T.);
#112=FACE_OUTER_BOUND('',#176,.T.);
#113=FACE_OUTER_BOUND('',#177,.T.);
#114=FACE_OUTER_BOUND('',#178,.T.);
#115=FACE_OUTER_BOUND('',#179,.T.);
#116=FACE_OUTER_BOUND('',#180,.T.);
#117=FACE_OUTER_BOUND('',#181,.T.);
#118=FACE_OUTER_BOUND('',#182,.T.);
#119=FACE_OUTER_BOUND('',#183,.T.);
#120=FACE_OUTER_BOUND('',#190,.T.);
#121=FACE_OUTER_BOUND('',#191,.T.);
#122=FACE_OUTER_BOUND('',#192,.T.);
#123=FACE_OUTER_BOUND('',#193,.T.);
#124=FACE_OUTER_BOUND('',#194,.T.);
#125=FACE_OUTER_BOUND('',#195,.T.);
#126=FACE_OUTER_BOUND('',#196,.T.);
#127=FACE_OUTER_BOUND('',#197,.T.);
#128=FACE_OUTER_BOUND('',#198,.T.);
#129=FACE_OUTER_BOUND('',#199,.T.);
#130=FACE_OUTER_BOUND('',#200,.T.);
#131=FACE_OUTER_BOUND('',#201,.T.);
#132=FACE_OUTER_BOUND('',#202,.T.);
#133=FACE_OUTER_BOUND('',#203,.T.);
#134=FACE_OUTER_BOUND('',#204,.T.);
#135=FACE_OUTER_BOUND('',#205,.T.);
#136=FACE_OUTER_BOUND('',#206,.T.);
#137=FACE_OUTER_BOUND('',#207,.T.);
#138=FACE_OUTER_BOUND('',#208,.T.);
#139=FACE_OUTER_BOUND('',#209,.T.);
#140=FACE_OUTER_BOUND('',#210,.T.);
#141=FACE_OUTER_BOUND('',#211,.T.);
#142=FACE_OUTER_BOUND('',#212,.T.);
#143=FACE_OUTER_BOUND('',#213,.T.);
#144=FACE_OUTER_BOUND('',#214,.T.);
#145=EDGE_LOOP('',(#758,#759,#760,#761,#762,#763,#764));
#146=EDGE_LOOP('',(#765));
#147=EDGE_LOOP('',(#766,#767,#768));
#148=EDGE_LOOP('',(#769,#770,#771));
#149=EDGE_LOOP('',(#772,#773,#774));
#150=EDGE_LOOP('',(#775,#776,#777));
#151=EDGE_LOOP('',(#778,#779,#780,#781));
#152=EDGE_LOOP('',(#782,#783,#784,#785));
#153=EDGE_LOOP('',(#786,#787,#788,#789,#790));
#154=EDGE_LOOP('',(#791,#792,#793,#794,#795));
#155=EDGE_LOOP('',(#796,#797,#798,#799,#800));
#156=EDGE_LOOP('',(#801,#802,#803,#804,#805));
#157=EDGE_LOOP('',(#806,#807,#808,#809));
#158=EDGE_LOOP('',(#810,#811,#812,#813));
#159=EDGE_LOOP('',(#814,#815,#816,#817));
#160=EDGE_LOOP('',(#818,#819,#820,#821));
#161=EDGE_LOOP('',(#822,#823,#824,#825));
#162=EDGE_LOOP('',(#826,#827,#828,#829));
#163=EDGE_LOOP('',(#830,#831,#832,#833,#834,#835,#836,#837));
#164=EDGE_LOOP('',(#838,#839,#840,#841));
#165=EDGE_LOOP('',(#842,#843,#844,#845));
#166=EDGE_LOOP('',(#846,#847,#848,#849,#850,#851,#852,#853));
#167=EDGE_LOOP('',(#854,#855,#856,#857));
#168=EDGE_LOOP('',(#858,#859,#860,#861));
#169=EDGE_LOOP('',(#862,#863,#864,#865));
#170=EDGE_LOOP('',(#866,#867,#868,#869,#870,#871));
#171=EDGE_LOOP('',(#872,#873,#874,#875,#876,#877));
#172=EDGE_LOOP('',(#878,#879,#880,#881));
#173=EDGE_LOOP('',(#882,#883,#884,#885));
#174=EDGE_LOOP('',(#886,#887,#888,#889));
#175=EDGE_LOOP('',(#890,#891,#892,#893));
#176=EDGE_LOOP('',(#894,#895,#896,#897));
#177=EDGE_LOOP('',(#898,#899,#900,#901));
#178=EDGE_LOOP('',(#902,#903,#904,#905));
#179=EDGE_LOOP('',(#906,#907,#908,#909));
#180=EDGE_LOOP('',(#910,#911,#912,#913));
#181=EDGE_LOOP('',(#914,#915,#916,#917));
#182=EDGE_LOOP('',(#918,#919,#920,#921));
#183=EDGE_LOOP('',(#922,#923,#924,#925,#926,#927,#928,#929));
#184=EDGE_LOOP('',(#930,#931,#932,#933));
#185=EDGE_LOOP('',(#934,#935,#936,#937));
#186=EDGE_LOOP('',(#938,#939,#940,#941));
#187=EDGE_LOOP('',(#942,#943,#944,#945));
#188=EDGE_LOOP('',(#946,#947,#948,#949));
#189=EDGE_LOOP('',(#950,#951,#952,#953));
#190=EDGE_LOOP('',(#954,#955,#956,#957));
#191=EDGE_LOOP('',(#958,#959,#960,#961));
#192=EDGE_LOOP('',(#962,#963,#964,#965));
#193=EDGE_LOOP('',(#966,#967,#968,#969));
#194=EDGE_LOOP('',(#970,#971,#972,#973));
#195=EDGE_LOOP('',(#974,#975,#976,#977));
#196=EDGE_LOOP('',(#978,#979,#980,#981));
#197=EDGE_LOOP('',(#982,#983,#984,#985));
#198=EDGE_LOOP('',(#986,#987,#988,#989));
#199=EDGE_LOOP('',(#990,#991,#992,#993));
#200=EDGE_LOOP('',(#994,#995,#996,#997));
#201=EDGE_LOOP('',(#998,#999,#1000,#1001));
#202=EDGE_LOOP('',(#1002,#1003,#1004,#1005));
#203=EDGE_LOOP('',(#1006,#1007,#1008,#1009));
#204=EDGE_LOOP('',(#1010,#1011,#1012,#1013));
#205=EDGE_LOOP('',(#1014,#1015,#1016,#1017));
#206=EDGE_LOOP('',(#1018,#1019,#1020,#1021));
#207=EDGE_LOOP('',(#1022,#1023,#1024,#1025));
#208=EDGE_LOOP('',(#1026,#1027,#1028,#1029));
#209=EDGE_LOOP('',(#1030,#1031,#1032,#1033));
#210=EDGE_LOOP('',(#1034,#1035,#1036,#1037));
#211=EDGE_LOOP('',(#1038,#1039,#1040,#1041,#1042,#1043));
#212=EDGE_LOOP('',(#1044,#1045,#1046,#1047));
#213=EDGE_LOOP('',(#1048,#1049,#1050,#1051,#1052));
#214=EDGE_LOOP('',(#1053,#1054,#1055,#1056,#1057));
#215=LINE('',#1495,#360);
#216=LINE('',#1506,#361);
#217=LINE('',#1507,#362);
#218=LINE('',#1510,#363);
#219=LINE('',#1511,#364);
#220=LINE('',#1514,#365);
#221=LINE('',#1515,#366);
#222=LINE('',#1518,#367);
#223=LINE('',#1519,#368);
#224=LINE('',#1523,#369);
#225=LINE('',#1525,#370);
#226=LINE('',#1527,#371);
#227=LINE('',#1528,#372);
#228=LINE('',#1531,#373);
#229=LINE('',#1533,#374);
#230=LINE('',#1535,#375);
#231=LINE('',#1536,#376);
#232=LINE('',#1538,#377);
#233=LINE('',#1539,#378);
#234=LINE('',#1541,#379);
#235=LINE('',#1543,#380);
#236=LINE('',#1548,#381);
#237=LINE('',#1549,#382);
#238=LINE('',#1550,#383);
#239=LINE('',#1553,#384);
#240=LINE('',#1554,#385);
#241=LINE('',#1557,#386);
#242=LINE('',#1558,#387);
#243=LINE('',#1560,#388);
#244=LINE('',#1564,#389);
#245=LINE('',#1566,#390);
#246=LINE('',#1568,#391);
#247=LINE('',#1569,#392);
#248=LINE('',#1572,#393);
#249=LINE('',#1574,#394);
#250=LINE('',#1575,#395);
#251=LINE('',#1578,#396);
#252=LINE('',#1580,#397);
#253=LINE('',#1582,#398);
#254=LINE('',#1584,#399);
#255=LINE('',#1586,#400);
#256=LINE('',#1587,#401);
#257=LINE('',#1591,#402);
#258=LINE('',#1593,#403);
#259=LINE('',#1595,#404);
#260=LINE('',#1596,#405);
#261=LINE('',#1599,#406);
#262=LINE('',#1601,#407);
#263=LINE('',#1602,#408);
#264=LINE('',#1605,#409);
#265=LINE('',#1607,#410);
#266=LINE('',#1609,#411);
#267=LINE('',#1611,#412);
#268=LINE('',#1613,#413);
#269=LINE('',#1614,#414);
#270=LINE('',#1617,#415);
#271=LINE('',#1618,#416);
#272=LINE('',#1621,#417);
#273=LINE('',#1622,#418);
#274=LINE('',#1625,#419);
#275=LINE('',#1627,#420);
#276=LINE('',#1628,#421);
#277=LINE('',#1631,#422);
#278=LINE('',#1633,#423);
#279=LINE('',#1634,#424);
#280=LINE('',#1638,#425);
#281=LINE('',#1640,#426);
#282=LINE('',#1642,#427);
#283=LINE('',#1643,#428);
#284=LINE('',#1646,#429);
#285=LINE('',#1648,#430);
#286=LINE('',#1649,#431);
#287=LINE('',#1652,#432);
#288=LINE('',#1654,#433);
#289=LINE('',#1655,#434);
#290=LINE('',#1657,#435);
#291=LINE('',#1658,#436);
#292=LINE('',#1663,#437);
#293=LINE('',#1665,#438);
#294=LINE('',#1667,#439);
#295=LINE('',#1668,#440);
#296=LINE('',#1671,#441);
#297=LINE('',#1673,#442);
#298=LINE('',#1674,#443);
#299=LINE('',#1677,#444);
#300=LINE('',#1679,#445);
#301=LINE('',#1680,#446);
#302=LINE('',#1682,#447);
#303=LINE('',#1683,#448);
#304=LINE('',#1686,#449);
#305=LINE('',#1688,#450);
#306=LINE('',#1689,#451);
#307=LINE('',#1692,#452);
#308=LINE('',#1694,#453);
#309=LINE('',#1696,#454);
#310=LINE('',#1697,#455);
#311=LINE('',#1700,#456);
#312=LINE('',#1702,#457);
#313=LINE('',#1704,#458);
#314=LINE('',#1705,#459);
#315=LINE('',#1708,#460);
#316=LINE('',#1710,#461);
#317=LINE('',#1712,#462);
#318=LINE('',#1713,#463);
#319=LINE('',#1716,#464);
#320=LINE('',#1718,#465);
#321=LINE('',#1720,#466);
#322=LINE('',#1721,#467);
#323=LINE('',#1724,#468);
#324=LINE('',#1726,#469);
#325=LINE('',#1727,#470);
#326=LINE('',#1730,#471);
#327=LINE('',#1731,#472);
#328=LINE('',#1734,#473);
#329=LINE('',#1735,#474);
#330=LINE('',#1737,#475);
#331=LINE('',#1741,#476);
#332=LINE('',#1743,#477);
#333=LINE('',#1744,#478);
#334=LINE('',#1747,#479);
#335=LINE('',#1748,#480);
#336=LINE('',#1751,#481);
#337=LINE('',#1752,#482);
#338=LINE('',#1754,#483);
#339=LINE('',#1758,#484);
#340=LINE('',#1760,#485);
#341=LINE('',#1761,#486);
#342=LINE('',#1764,#487);
#343=LINE('',#1765,#488);
#344=LINE('',#1768,#489);
#345=LINE('',#1769,#490);
#346=LINE('',#1771,#491);
#347=LINE('',#1774,#492);
#348=LINE('',#1777,#493);
#349=LINE('',#1779,#494);
#350=LINE('',#1780,#495);
#351=LINE('',#1783,#496);
#352=LINE('',#1784,#497);
#353=LINE('',#1787,#498);
#354=LINE('',#1788,#499);
#355=LINE('',#1790,#500);
#356=LINE('',#1793,#501);
#357=LINE('',#1796,#502);
#358=LINE('',#1797,#503);
#359=LINE('',#1799,#504);
#360=VECTOR('',#1215,4.);
#361=VECTOR('',#1228,10.);
#362=VECTOR('',#1229,10.);
#363=VECTOR('',#1232,10.);
#364=VECTOR('',#1233,10.);
#365=VECTOR('',#1236,10.);
#366=VECTOR('',#1237,10.);
#367=VECTOR('',#1240,10.);
#368=VECTOR('',#1241,10.);
#369=VECTOR('',#1244,10.);
#370=VECTOR('',#1245,10.);
#371=VECTOR('',#1246,10.);
#372=VECTOR('',#1247,10.);
#373=VECTOR('',#1248,10.);
#374=VECTOR('',#1249,10.);
#375=VECTOR('',#1250,10.);
#376=VECTOR('',#1251,10.);
#377=VECTOR('',#1254,10.);
#378=VECTOR('',#1255,10.);
#379=VECTOR('',#1258,10.);
#380=VECTOR('',#1261,10.);
#381=VECTOR('',#1266,10.);
#382=VECTOR('',#1267,10.);
#383=VECTOR('',#1268,10.);
#384=VECTOR('',#1271,10.);
#385=VECTOR('',#1272,10.);
#386=VECTOR('',#1275,10.);
#387=VECTOR('',#1276,10.);
#388=VECTOR('',#1279,10.);
#389=VECTOR('',#1282,10.);
#390=VECTOR('',#1283,10.);
#391=VECTOR('',#1284,10.);
#392=VECTOR('',#1285,10.);
#393=VECTOR('',#1288,10.);
#394=VECTOR('',#1289,10.);
#395=VECTOR('',#1290,10.);
#396=VECTOR('',#1293,10.);
#397=VECTOR('',#1294,10.);
#398=VECTOR('',#1295,10.);
#399=VECTOR('',#1296,10.);
#400=VECTOR('',#1297,10.);
#401=VECTOR('',#1298,10.);
#402=VECTOR('',#1301,10.);
#403=VECTOR('',#1302,10.);
#404=VECTOR('',#1303,10.);
#405=VECTOR('',#1304,10.);
#406=VECTOR('',#1307,10.);
#407=VECTOR('',#1308,10.);
#408=VECTOR('',#1309,10.);
#409=VECTOR('',#1312,10.);
#410=VECTOR('',#1313,10.);
#411=VECTOR('',#1314,10.);
#412=VECTOR('',#1315,10.);
#413=VECTOR('',#1316,10.);
#414=VECTOR('',#1317,10.);
#415=VECTOR('',#1320,10.);
#416=VECTOR('',#1321,10.);
#417=VECTOR('',#1324,10.);
#418=VECTOR('',#1325,10.);
#419=VECTOR('',#1328,10.);
#420=VECTOR('',#1329,10.);
#421=VECTOR('',#1330,10.);
#422=VECTOR('',#1333,10.);
#423=VECTOR('',#1334,10.);
#424=VECTOR('',#1335,10.);
#425=VECTOR('',#1338,10.);
#426=VECTOR('',#1339,10.);
#427=VECTOR('',#1340,10.);
#428=VECTOR('',#1341,10.);
#429=VECTOR('',#1344,10.);
#430=VECTOR('',#1345,10.);
#431=VECTOR('',#1346,10.);
#432=VECTOR('',#1349,10.);
#433=VECTOR('',#1350,10.);
#434=VECTOR('',#1351,10.);
#435=VECTOR('',#1354,10.);
#436=VECTOR('',#1355,10.);
#437=VECTOR('',#1360,10.);
#438=VECTOR('',#1361,10.);
#439=VECTOR('',#1362,10.);
#440=VECTOR('',#1363,10.);
#441=VECTOR('',#1366,10.);
#442=VECTOR('',#1367,10.);
#443=VECTOR('',#1368,10.);
#444=VECTOR('',#1371,10.);
#445=VECTOR('',#1372,10.);
#446=VECTOR('',#1373,10.);
#447=VECTOR('',#1376,10.);
#448=VECTOR('',#1377,10.);
#449=VECTOR('',#1382,10.);
#450=VECTOR('',#1385,10.);
#451=VECTOR('',#1386,10.);
#452=VECTOR('',#1387,10.);
#453=VECTOR('',#1388,10.);
#454=VECTOR('',#1389,10.);
#455=VECTOR('',#1390,10.);
#456=VECTOR('',#1391,10.);
#457=VECTOR('',#1392,10.);
#458=VECTOR('',#1393,10.);
#459=VECTOR('',#1394,10.);
#460=VECTOR('',#1395,10.);
#461=VECTOR('',#1396,10.);
#462=VECTOR('',#1397,10.);
#463=VECTOR('',#1398,10.);
#464=VECTOR('',#1399,10.);
#465=VECTOR('',#1400,10.);
#466=VECTOR('',#1401,10.);
#467=VECTOR('',#1402,10.);
#468=VECTOR('',#1405,10.);
#469=VECTOR('',#1406,10.);
#470=VECTOR('',#1407,10.);
#471=VECTOR('',#1410,10.);
#472=VECTOR('',#1411,10.);
#473=VECTOR('',#1414,10.);
#474=VECTOR('',#1415,10.);
#475=VECTOR('',#1418,10.);
#476=VECTOR('',#1423,10.);
#477=VECTOR('',#1424,10.);
#478=VECTOR('',#1425,10.);
#479=VECTOR('',#1428,10.);
#480=VECTOR('',#1429,10.);
#481=VECTOR('',#1432,10.);
#482=VECTOR('',#1433,10.);
#483=VECTOR('',#1436,10.);
#484=VECTOR('',#1441,10.);
#485=VECTOR('',#1442,10.);
#486=VECTOR('',#1443,10.);
#487=VECTOR('',#1446,10.);
#488=VECTOR('',#1447,10.);
#489=VECTOR('',#1450,10.);
#490=VECTOR('',#1451,10.);
#491=VECTOR('',#1454,10.);
#492=VECTOR('',#1459,10.);
#493=VECTOR('',#1462,10.);
#494=VECTOR('',#1463,10.);
#495=VECTOR('',#1464,10.);
#496=VECTOR('',#1467,10.);
#497=VECTOR('',#1468,10.);
#498=VECTOR('',#1471,10.);
#499=VECTOR('',#1472,10.);
#500=VECTOR('',#1475,10.);
#501=VECTOR('',#1480,10.);
#502=VECTOR('',#1483,10.);
#503=VECTOR('',#1484,10.);
#504=VECTOR('',#1487,10.);
#505=CIRCLE('',#1143,3.37110664860351);
#506=CIRCLE('',#1144,4.);
#507=CIRCLE('',#1145,4.);
#508=CIRCLE('',#1146,4.);
#509=CIRCLE('',#1147,4.);
#510=VERTEX_POINT('',#1492);
#511=VERTEX_POINT('',#1494);
#512=VERTEX_POINT('',#1496);
#513=VERTEX_POINT('',#1498);
#514=VERTEX_POINT('',#1500);
#515=VERTEX_POINT('',#1505);
#516=VERTEX_POINT('',#1509);
#517=VERTEX_POINT('',#1513);
#518=VERTEX_POINT('',#1517);
#519=VERTEX_POINT('',#1521);
#520=VERTEX_POINT('',#1522);
#521=VERTEX_POINT('',#1524);
#522=VERTEX_POINT('',#1526);
#523=VERTEX_POINT('',#1529);
#524=VERTEX_POINT('',#1530);
#525=VERTEX_POINT('',#1532);
#526=VERTEX_POINT('',#1534);
#527=VERTEX_POINT('',#1546);
#528=VERTEX_POINT('',#1547);
#529=VERTEX_POINT('',#1552);
#530=VERTEX_POINT('',#1556);
#531=VERTEX_POINT('',#1562);
#532=VERTEX_POINT('',#1563);
#533=VERTEX_POINT('',#1565);
#534=VERTEX_POINT('',#1567);
#535=VERTEX_POINT('',#1571);
#536=VERTEX_POINT('',#1573);
#537=VERTEX_POINT('',#1577);
#538=VERTEX_POINT('',#1579);
#539=VERTEX_POINT('',#1581);
#540=VERTEX_POINT('',#1583);
#541=VERTEX_POINT('',#1585);
#542=VERTEX_POINT('',#1589);
#543=VERTEX_POINT('',#1590);
#544=VERTEX_POINT('',#1592);
#545=VERTEX_POINT('',#1594);
#546=VERTEX_POINT('',#1598);
#547=VERTEX_POINT('',#1600);
#548=VERTEX_POINT('',#1604);
#549=VERTEX_POINT('',#1606);
#550=VERTEX_POINT('',#1608);
#551=VERTEX_POINT('',#1610);
#552=VERTEX_POINT('',#1612);
#553=VERTEX_POINT('',#1616);
#554=VERTEX_POINT('',#1620);
#555=VERTEX_POINT('',#1624);
#556=VERTEX_POINT('',#1626);
#557=VERTEX_POINT('',#1630);
#558=VERTEX_POINT('',#1632);
#559=VERTEX_POINT('',#1636);
#560=VERTEX_POINT('',#1637);
#561=VERTEX_POINT('',#1639);
#562=VERTEX_POINT('',#1641);
#563=VERTEX_POINT('',#1645);
#564=VERTEX_POINT('',#1647);
#565=VERTEX_POINT('',#1651);
#566=VERTEX_POINT('',#1653);
#567=VERTEX_POINT('',#1661);
#568=VERTEX_POINT('',#1662);
#569=VERTEX_POINT('',#1664);
#570=VERTEX_POINT('',#1666);
#571=VERTEX_POINT('',#1670);
#572=VERTEX_POINT('',#1672);
#573=VERTEX_POINT('',#1676);
#574=VERTEX_POINT('',#1678);
#575=VERTEX_POINT('',#1690);
#576=VERTEX_POINT('',#1691);
#577=VERTEX_POINT('',#1693);
#578=VERTEX_POINT('',#1695);
#579=VERTEX_POINT('',#1698);
#580=VERTEX_POINT('',#1699);
#581=VERTEX_POINT('',#1701);
#582=VERTEX_POINT('',#1703);
#583=VERTEX_POINT('',#1706);
#584=VERTEX_POINT('',#1707);
#585=VERTEX_POINT('',#1709);
#586=VERTEX_POINT('',#1711);
#587=VERTEX_POINT('',#1714);
#588=VERTEX_POINT('',#1715);
#589=VERTEX_POINT('',#1717);
#590=VERTEX_POINT('',#1719);
#591=VERTEX_POINT('',#1723);
#592=VERTEX_POINT('',#1725);
#593=VERTEX_POINT('',#1729);
#594=VERTEX_POINT('',#1733);
#595=VERTEX_POINT('',#1740);
#596=VERTEX_POINT('',#1742);
#597=VERTEX_POINT('',#1746);
#598=VERTEX_POINT('',#1750);
#599=VERTEX_POINT('',#1757);
#600=VERTEX_POINT('',#1759);
#601=VERTEX_POINT('',#1763);
#602=VERTEX_POINT('',#1767);
#603=VERTEX_POINT('',#1776);
#604=VERTEX_POINT('',#1778);
#605=VERTEX_POINT('',#1782);
#606=VERTEX_POINT('',#1786);
#607=VERTEX_POINT('',#1795);
#608=EDGE_CURVE('',#510,#510,#505,.T.);
#609=EDGE_CURVE('',#510,#511,#215,.T.);
#610=EDGE_CURVE('',#512,#511,#506,.T.);
#611=EDGE_CURVE('',#513,#512,#507,.T.);
#612=EDGE_CURVE('',#514,#513,#508,.T.);
#613=EDGE_CURVE('',#511,#514,#509,.T.);
#614=EDGE_CURVE('',#514,#515,#216,.T.);
#615=EDGE_CURVE('',#515,#511,#217,.T.);
#616=EDGE_CURVE('',#513,#516,#218,.T.);
#617=EDGE_CURVE('',#516,#514,#219,.T.);
#618=EDGE_CURVE('',#512,#517,#220,.T.);
#619=EDGE_CURVE('',#517,#513,#221,.T.);
#620=EDGE_CURVE('',#511,#518,#222,.T.);
#621=EDGE_CURVE('',#518,#512,#223,.T.);
#622=EDGE_CURVE('',#519,#520,#224,.T.);
#623=EDGE_CURVE('',#520,#521,#225,.T.);
#624=EDGE_CURVE('',#521,#522,#226,.T.);
#625=EDGE_CURVE('',#522,#519,#227,.T.);
#626=EDGE_CURVE('',#523,#524,#228,.T.);
#627=EDGE_CURVE('',#524,#525,#229,.T.);
#628=EDGE_CURVE('',#525,#526,#230,.T.);
#629=EDGE_CURVE('',#526,#523,#231,.T.);
#630=EDGE_CURVE('',#520,#515,#232,.T.);
#631=EDGE_CURVE('',#521,#516,#233,.T.);
#632=EDGE_CURVE('',#522,#517,#234,.T.);
#633=EDGE_CURVE('',#519,#518,#235,.T.);
#634=EDGE_CURVE('',#527,#528,#236,.T.);
#635=EDGE_CURVE('',#527,#524,#237,.T.);
#636=EDGE_CURVE('',#528,#523,#238,.T.);
#637=EDGE_CURVE('',#528,#529,#239,.T.);
#638=EDGE_CURVE('',#529,#526,#240,.T.);
#639=EDGE_CURVE('',#529,#530,#241,.T.);
#640=EDGE_CURVE('',#530,#525,#242,.T.);
#641=EDGE_CURVE('',#530,#527,#243,.T.);
#642=EDGE_CURVE('',#531,#532,#244,.T.);
#643=EDGE_CURVE('',#532,#533,#245,.T.);
#644=EDGE_CURVE('',#533,#534,#246,.T.);
#645=EDGE_CURVE('',#531,#534,#247,.T.);
#646=EDGE_CURVE('',#535,#532,#248,.T.);
#647=EDGE_CURVE('',#536,#535,#249,.T.);
#648=EDGE_CURVE('',#536,#533,#250,.T.);
#649=EDGE_CURVE('',#531,#537,#251,.T.);
#650=EDGE_CURVE('',#538,#537,#252,.T.);
#651=EDGE_CURVE('',#538,#539,#253,.T.);
#652=EDGE_CURVE('',#540,#539,#254,.T.);
#653=EDGE_CURVE('',#541,#540,#255,.T.);
#654=EDGE_CURVE('',#535,#541,#256,.T.);
#655=EDGE_CURVE('',#542,#543,#257,.T.);
#656=EDGE_CURVE('',#543,#544,#258,.T.);
#657=EDGE_CURVE('',#544,#545,#259,.T.);
#658=EDGE_CURVE('',#542,#545,#260,.T.);
#659=EDGE_CURVE('',#546,#543,#261,.T.);
#660=EDGE_CURVE('',#547,#546,#262,.T.);
#661=EDGE_CURVE('',#547,#544,#263,.T.);
#662=EDGE_CURVE('',#542,#548,#264,.T.);
#663=EDGE_CURVE('',#549,#548,#265,.T.);
#664=EDGE_CURVE('',#549,#550,#266,.T.);
#665=EDGE_CURVE('',#551,#550,#267,.T.);
#666=EDGE_CURVE('',#552,#551,#268,.T.);
#667=EDGE_CURVE('',#552,#546,#269,.T.);
#668=EDGE_CURVE('',#537,#553,#270,.T.);
#669=EDGE_CURVE('',#553,#534,#271,.T.);
#670=EDGE_CURVE('',#548,#554,#272,.T.);
#671=EDGE_CURVE('',#554,#545,#273,.T.);
#672=EDGE_CURVE('',#555,#536,#274,.T.);
#673=EDGE_CURVE('',#555,#556,#275,.T.);
#674=EDGE_CURVE('',#553,#556,#276,.T.);
#675=EDGE_CURVE('',#557,#547,#277,.T.);
#676=EDGE_CURVE('',#557,#558,#278,.T.);
#677=EDGE_CURVE('',#554,#558,#279,.T.);
#678=EDGE_CURVE('',#559,#560,#280,.T.);
#679=EDGE_CURVE('',#559,#561,#281,.T.);
#680=EDGE_CURVE('',#562,#561,#282,.T.);
#681=EDGE_CURVE('',#560,#562,#283,.T.);
#682=EDGE_CURVE('',#560,#563,#284,.T.);
#683=EDGE_CURVE('',#564,#562,#285,.T.);
#684=EDGE_CURVE('',#563,#564,#286,.T.);
#685=EDGE_CURVE('',#563,#565,#287,.T.);
#686=EDGE_CURVE('',#566,#564,#288,.T.);
#687=EDGE_CURVE('',#565,#566,#289,.T.);
#688=EDGE_CURVE('',#565,#559,#290,.T.);
#689=EDGE_CURVE('',#561,#566,#291,.T.);
#690=EDGE_CURVE('',#567,#568,#292,.T.);
#691=EDGE_CURVE('',#567,#569,#293,.T.);
#692=EDGE_CURVE('',#570,#569,#294,.T.);
#693=EDGE_CURVE('',#568,#570,#295,.T.);
#694=EDGE_CURVE('',#568,#571,#296,.T.);
#695=EDGE_CURVE('',#572,#570,#297,.T.);
#696=EDGE_CURVE('',#571,#572,#298,.T.);
#697=EDGE_CURVE('',#571,#573,#299,.T.);
#698=EDGE_CURVE('',#574,#572,#300,.T.);
#699=EDGE_CURVE('',#573,#574,#301,.T.);
#700=EDGE_CURVE('',#573,#567,#302,.T.);
#701=EDGE_CURVE('',#569,#574,#303,.T.);
#702=EDGE_CURVE('',#558,#549,#304,.T.);
#703=EDGE_CURVE('',#552,#555,#305,.T.);
#704=EDGE_CURVE('',#541,#557,#306,.T.);
#705=EDGE_CURVE('',#575,#576,#307,.T.);
#706=EDGE_CURVE('',#576,#577,#308,.T.);
#707=EDGE_CURVE('',#577,#578,#309,.T.);
#708=EDGE_CURVE('',#578,#575,#310,.T.);
#709=EDGE_CURVE('',#579,#580,#311,.T.);
#710=EDGE_CURVE('',#580,#581,#312,.T.);
#711=EDGE_CURVE('',#581,#582,#313,.T.);
#712=EDGE_CURVE('',#582,#579,#314,.T.);
#713=EDGE_CURVE('',#583,#584,#315,.T.);
#714=EDGE_CURVE('',#584,#585,#316,.T.);
#715=EDGE_CURVE('',#585,#586,#317,.T.);
#716=EDGE_CURVE('',#586,#583,#318,.T.);
#717=EDGE_CURVE('',#587,#588,#319,.T.);
#718=EDGE_CURVE('',#588,#589,#320,.T.);
#719=EDGE_CURVE('',#589,#590,#321,.T.);
#720=EDGE_CURVE('',#590,#587,#322,.T.);
#721=EDGE_CURVE('',#587,#591,#323,.T.);
#722=EDGE_CURVE('',#592,#591,#324,.T.);
#723=EDGE_CURVE('',#588,#592,#325,.T.);
#724=EDGE_CURVE('',#593,#592,#326,.T.);
#725=EDGE_CURVE('',#589,#593,#327,.T.);
#726=EDGE_CURVE('',#594,#593,#328,.T.);
#727=EDGE_CURVE('',#590,#594,#329,.T.);
#728=EDGE_CURVE('',#591,#594,#330,.T.);
#729=EDGE_CURVE('',#583,#595,#331,.T.);
#730=EDGE_CURVE('',#596,#595,#332,.T.);
#731=EDGE_CURVE('',#584,#596,#333,.T.);
#732=EDGE_CURVE('',#597,#596,#334,.T.);
#733=EDGE_CURVE('',#585,#597,#335,.T.);
#734=EDGE_CURVE('',#598,#597,#336,.T.);
#735=EDGE_CURVE('',#586,#598,#337,.T.);
#736=EDGE_CURVE('',#595,#598,#338,.T.);
#737=EDGE_CURVE('',#579,#599,#339,.T.);
#738=EDGE_CURVE('',#600,#599,#340,.T.);
#739=EDGE_CURVE('',#580,#600,#341,.T.);
#740=EDGE_CURVE('',#601,#600,#342,.T.);
#741=EDGE_CURVE('',#581,#601,#343,.T.);
#742=EDGE_CURVE('',#602,#601,#344,.T.);
#743=EDGE_CURVE('',#582,#602,#345,.T.);
#744=EDGE_CURVE('',#599,#602,#346,.T.);
#745=EDGE_CURVE('',#556,#538,#347,.T.);
#746=EDGE_CURVE('',#575,#603,#348,.T.);
#747=EDGE_CURVE('',#604,#603,#349,.T.);
#748=EDGE_CURVE('',#576,#604,#350,.T.);
#749=EDGE_CURVE('',#605,#604,#351,.T.);
#750=EDGE_CURVE('',#577,#605,#352,.T.);
#751=EDGE_CURVE('',#606,#605,#353,.T.);
#752=EDGE_CURVE('',#578,#606,#354,.T.);
#753=EDGE_CURVE('',#603,#606,#355,.T.);
#754=EDGE_CURVE('',#539,#551,#356,.T.);
#755=EDGE_CURVE('',#607,#540,#357,.T.);
#756=EDGE_CURVE('',#557,#607,#358,.T.);
#757=EDGE_CURVE('',#550,#607,#359,.T.);
#758=ORIENTED_EDGE('',*,*,#608,.T.);
#759=ORIENTED_EDGE('',*,*,#609,.T.);
#760=ORIENTED_EDGE('',*,*,#610,.F.);
#761=ORIENTED_EDGE('',*,*,#611,.F.);
#762=ORIENTED_EDGE('',*,*,#612,.F.);
#763=ORIENTED_EDGE('',*,*,#613,.F.);
#764=ORIENTED_EDGE('',*,*,#609,.F.);
#765=ORIENTED_EDGE('',*,*,#608,.F.);
#766=ORIENTED_EDGE('',*,*,#613,.T.);
#767=ORIENTED_EDGE('',*,*,#614,.T.);
#768=ORIENTED_EDGE('',*,*,#615,.T.);
#769=ORIENTED_EDGE('',*,*,#612,.T.);
#770=ORIENTED_EDGE('',*,*,#616,.T.);
#771=ORIENTED_EDGE('',*,*,#617,.T.);
#772=ORIENTED_EDGE('',*,*,#611,.T.);
#773=ORIENTED_EDGE('',*,*,#618,.T.);
#774=ORIENTED_EDGE('',*,*,#619,.T.);
#775=ORIENTED_EDGE('',*,*,#610,.T.);
#776=ORIENTED_EDGE('',*,*,#620,.T.);
#777=ORIENTED_EDGE('',*,*,#621,.T.);
#778=ORIENTED_EDGE('',*,*,#622,.T.);
#779=ORIENTED_EDGE('',*,*,#623,.T.);
#780=ORIENTED_EDGE('',*,*,#624,.T.);
#781=ORIENTED_EDGE('',*,*,#625,.T.);
#782=ORIENTED_EDGE('',*,*,#626,.T.);
#783=ORIENTED_EDGE('',*,*,#627,.T.);
#784=ORIENTED_EDGE('',*,*,#628,.T.);
#785=ORIENTED_EDGE('',*,*,#629,.T.);
#786=ORIENTED_EDGE('',*,*,#623,.F.);
#787=ORIENTED_EDGE('',*,*,#630,.T.);
#788=ORIENTED_EDGE('',*,*,#614,.F.);
#789=ORIENTED_EDGE('',*,*,#617,.F.);
#790=ORIENTED_EDGE('',*,*,#631,.F.);
#791=ORIENTED_EDGE('',*,*,#624,.F.);
#792=ORIENTED_EDGE('',*,*,#631,.T.);
#793=ORIENTED_EDGE('',*,*,#616,.F.);
#794=ORIENTED_EDGE('',*,*,#619,.F.);
#795=ORIENTED_EDGE('',*,*,#632,.F.);
#796=ORIENTED_EDGE('',*,*,#625,.F.);
#797=ORIENTED_EDGE('',*,*,#632,.T.);
#798=ORIENTED_EDGE('',*,*,#618,.F.);
#799=ORIENTED_EDGE('',*,*,#621,.F.);
#800=ORIENTED_EDGE('',*,*,#633,.F.);
#801=ORIENTED_EDGE('',*,*,#622,.F.);
#802=ORIENTED_EDGE('',*,*,#633,.T.);
#803=ORIENTED_EDGE('',*,*,#620,.F.);
#804=ORIENTED_EDGE('',*,*,#615,.F.);
#805=ORIENTED_EDGE('',*,*,#630,.F.);
#806=ORIENTED_EDGE('',*,*,#634,.F.);
#807=ORIENTED_EDGE('',*,*,#635,.T.);
#808=ORIENTED_EDGE('',*,*,#626,.F.);
#809=ORIENTED_EDGE('',*,*,#636,.F.);
#810=ORIENTED_EDGE('',*,*,#637,.F.);
#811=ORIENTED_EDGE('',*,*,#636,.T.);
#812=ORIENTED_EDGE('',*,*,#629,.F.);
#813=ORIENTED_EDGE('',*,*,#638,.F.);
#814=ORIENTED_EDGE('',*,*,#639,.F.);
#815=ORIENTED_EDGE('',*,*,#638,.T.);
#816=ORIENTED_EDGE('',*,*,#628,.F.);
#817=ORIENTED_EDGE('',*,*,#640,.F.);
#818=ORIENTED_EDGE('',*,*,#641,.F.);
#819=ORIENTED_EDGE('',*,*,#640,.T.);
#820=ORIENTED_EDGE('',*,*,#627,.F.);
#821=ORIENTED_EDGE('',*,*,#635,.F.);
#822=ORIENTED_EDGE('',*,*,#642,.T.);
#823=ORIENTED_EDGE('',*,*,#643,.T.);
#824=ORIENTED_EDGE('',*,*,#644,.T.);
#825=ORIENTED_EDGE('',*,*,#645,.F.);
#826=ORIENTED_EDGE('',*,*,#643,.F.);
#827=ORIENTED_EDGE('',*,*,#646,.F.);
#828=ORIENTED_EDGE('',*,*,#647,.F.);
#829=ORIENTED_EDGE('',*,*,#648,.T.);
#830=ORIENTED_EDGE('',*,*,#642,.F.);
#831=ORIENTED_EDGE('',*,*,#649,.T.);
#832=ORIENTED_EDGE('',*,*,#650,.F.);
#833=ORIENTED_EDGE('',*,*,#651,.T.);
#834=ORIENTED_EDGE('',*,*,#652,.F.);
#835=ORIENTED_EDGE('',*,*,#653,.F.);
#836=ORIENTED_EDGE('',*,*,#654,.F.);
#837=ORIENTED_EDGE('',*,*,#646,.T.);
#838=ORIENTED_EDGE('',*,*,#655,.T.);
#839=ORIENTED_EDGE('',*,*,#656,.T.);
#840=ORIENTED_EDGE('',*,*,#657,.T.);
#841=ORIENTED_EDGE('',*,*,#658,.F.);
#842=ORIENTED_EDGE('',*,*,#656,.F.);
#843=ORIENTED_EDGE('',*,*,#659,.F.);
#844=ORIENTED_EDGE('',*,*,#660,.F.);
#845=ORIENTED_EDGE('',*,*,#661,.T.);
#846=ORIENTED_EDGE('',*,*,#655,.F.);
#847=ORIENTED_EDGE('',*,*,#662,.T.);
#848=ORIENTED_EDGE('',*,*,#663,.F.);
#849=ORIENTED_EDGE('',*,*,#664,.T.);
#850=ORIENTED_EDGE('',*,*,#665,.F.);
#851=ORIENTED_EDGE('',*,*,#666,.F.);
#852=ORIENTED_EDGE('',*,*,#667,.T.);
#853=ORIENTED_EDGE('',*,*,#659,.T.);
#854=ORIENTED_EDGE('',*,*,#634,.T.);
#855=ORIENTED_EDGE('',*,*,#637,.T.);
#856=ORIENTED_EDGE('',*,*,#639,.T.);
#857=ORIENTED_EDGE('',*,*,#641,.T.);
#858=ORIENTED_EDGE('',*,*,#668,.F.);
#859=ORIENTED_EDGE('',*,*,#649,.F.);
#860=ORIENTED_EDGE('',*,*,#645,.T.);
#861=ORIENTED_EDGE('',*,*,#669,.F.);
#862=ORIENTED_EDGE('',*,*,#670,.F.);
#863=ORIENTED_EDGE('',*,*,#662,.F.);
#864=ORIENTED_EDGE('',*,*,#658,.T.);
#865=ORIENTED_EDGE('',*,*,#671,.F.);
#866=ORIENTED_EDGE('',*,*,#644,.F.);
#867=ORIENTED_EDGE('',*,*,#648,.F.);
#868=ORIENTED_EDGE('',*,*,#672,.F.);
#869=ORIENTED_EDGE('',*,*,#673,.T.);
#870=ORIENTED_EDGE('',*,*,#674,.F.);
#871=ORIENTED_EDGE('',*,*,#669,.T.);
#872=ORIENTED_EDGE('',*,*,#657,.F.);
#873=ORIENTED_EDGE('',*,*,#661,.F.);
#874=ORIENTED_EDGE('',*,*,#675,.F.);
#875=ORIENTED_EDGE('',*,*,#676,.T.);
#876=ORIENTED_EDGE('',*,*,#677,.F.);
#877=ORIENTED_EDGE('',*,*,#671,.T.);
#878=ORIENTED_EDGE('',*,*,#678,.F.);
#879=ORIENTED_EDGE('',*,*,#679,.T.);
#880=ORIENTED_EDGE('',*,*,#680,.F.);
#881=ORIENTED_EDGE('',*,*,#681,.F.);
#882=ORIENTED_EDGE('',*,*,#682,.F.);
#883=ORIENTED_EDGE('',*,*,#681,.T.);
#884=ORIENTED_EDGE('',*,*,#683,.F.);
#885=ORIENTED_EDGE('',*,*,#684,.F.);
#886=ORIENTED_EDGE('',*,*,#685,.F.);
#887=ORIENTED_EDGE('',*,*,#684,.T.);
#888=ORIENTED_EDGE('',*,*,#686,.F.);
#889=ORIENTED_EDGE('',*,*,#687,.F.);
#890=ORIENTED_EDGE('',*,*,#688,.F.);
#891=ORIENTED_EDGE('',*,*,#687,.T.);
#892=ORIENTED_EDGE('',*,*,#689,.F.);
#893=ORIENTED_EDGE('',*,*,#679,.F.);
#894=ORIENTED_EDGE('',*,*,#689,.T.);
#895=ORIENTED_EDGE('',*,*,#686,.T.);
#896=ORIENTED_EDGE('',*,*,#683,.T.);
#897=ORIENTED_EDGE('',*,*,#680,.T.);
#898=ORIENTED_EDGE('',*,*,#690,.F.);
#899=ORIENTED_EDGE('',*,*,#691,.T.);
#900=ORIENTED_EDGE('',*,*,#692,.F.);
#901=ORIENTED_EDGE('',*,*,#693,.F.);
#902=ORIENTED_EDGE('',*,*,#694,.F.);
#903=ORIENTED_EDGE('',*,*,#693,.T.);
#904=ORIENTED_EDGE('',*,*,#695,.F.);
#905=ORIENTED_EDGE('',*,*,#696,.F.);
#906=ORIENTED_EDGE('',*,*,#697,.F.);
#907=ORIENTED_EDGE('',*,*,#696,.T.);
#908=ORIENTED_EDGE('',*,*,#698,.F.);
#909=ORIENTED_EDGE('',*,*,#699,.F.);
#910=ORIENTED_EDGE('',*,*,#700,.F.);
#911=ORIENTED_EDGE('',*,*,#699,.T.);
#912=ORIENTED_EDGE('',*,*,#701,.F.);
#913=ORIENTED_EDGE('',*,*,#691,.F.);
#914=ORIENTED_EDGE('',*,*,#701,.T.);
#915=ORIENTED_EDGE('',*,*,#698,.T.);
#916=ORIENTED_EDGE('',*,*,#695,.T.);
#917=ORIENTED_EDGE('',*,*,#692,.T.);
#918=ORIENTED_EDGE('',*,*,#670,.T.);
#919=ORIENTED_EDGE('',*,*,#677,.T.);
#920=ORIENTED_EDGE('',*,*,#702,.T.);
#921=ORIENTED_EDGE('',*,*,#663,.T.);
#922=ORIENTED_EDGE('',*,*,#675,.T.);
#923=ORIENTED_EDGE('',*,*,#660,.T.);
#924=ORIENTED_EDGE('',*,*,#667,.F.);
#925=ORIENTED_EDGE('',*,*,#703,.T.);
#926=ORIENTED_EDGE('',*,*,#672,.T.);
#927=ORIENTED_EDGE('',*,*,#647,.T.);
#928=ORIENTED_EDGE('',*,*,#654,.T.);
#929=ORIENTED_EDGE('',*,*,#704,.T.);
#930=ORIENTED_EDGE('',*,*,#678,.T.);
#931=ORIENTED_EDGE('',*,*,#682,.T.);
#932=ORIENTED_EDGE('',*,*,#685,.T.);
#933=ORIENTED_EDGE('',*,*,#688,.T.);
#934=ORIENTED_EDGE('',*,*,#690,.T.);
#935=ORIENTED_EDGE('',*,*,#694,.T.);
#936=ORIENTED_EDGE('',*,*,#697,.T.);
#937=ORIENTED_EDGE('',*,*,#700,.T.);
#938=ORIENTED_EDGE('',*,*,#705,.T.);
#939=ORIENTED_EDGE('',*,*,#706,.T.);
#940=ORIENTED_EDGE('',*,*,#707,.T.);
#941=ORIENTED_EDGE('',*,*,#708,.T.);
#942=ORIENTED_EDGE('',*,*,#709,.T.);
#943=ORIENTED_EDGE('',*,*,#710,.T.);
#944=ORIENTED_EDGE('',*,*,#711,.T.);
#945=ORIENTED_EDGE('',*,*,#712,.T.);
#946=ORIENTED_EDGE('',*,*,#713,.T.);
#947=ORIENTED_EDGE('',*,*,#714,.T.);
#948=ORIENTED_EDGE('',*,*,#715,.T.);
#949=ORIENTED_EDGE('',*,*,#716,.T.);
#950=ORIENTED_EDGE('',*,*,#717,.T.);
#951=ORIENTED_EDGE('',*,*,#718,.T.);
#952=ORIENTED_EDGE('',*,*,#719,.T.);
#953=ORIENTED_EDGE('',*,*,#720,.T.);
#954=ORIENTED_EDGE('',*,*,#717,.F.);
#955=ORIENTED_EDGE('',*,*,#721,.T.);
#956=ORIENTED_EDGE('',*,*,#722,.F.);
#957=ORIENTED_EDGE('',*,*,#723,.F.);
#958=ORIENTED_EDGE('',*,*,#718,.F.);
#959=ORIENTED_EDGE('',*,*,#723,.T.);
#960=ORIENTED_EDGE('',*,*,#724,.F.);
#961=ORIENTED_EDGE('',*,*,#725,.F.);
#962=ORIENTED_EDGE('',*,*,#719,.F.);
#963=ORIENTED_EDGE('',*,*,#725,.T.);
#964=ORIENTED_EDGE('',*,*,#726,.F.);
#965=ORIENTED_EDGE('',*,*,#727,.F.);
#966=ORIENTED_EDGE('',*,*,#720,.F.);
#967=ORIENTED_EDGE('',*,*,#727,.T.);
#968=ORIENTED_EDGE('',*,*,#728,.F.);
#969=ORIENTED_EDGE('',*,*,#721,.F.);
#970=ORIENTED_EDGE('',*,*,#728,.T.);
#971=ORIENTED_EDGE('',*,*,#726,.T.);
#972=ORIENTED_EDGE('',*,*,#724,.T.);
#973=ORIENTED_EDGE('',*,*,#722,.T.);
#974=ORIENTED_EDGE('',*,*,#713,.F.);
#975=ORIENTED_EDGE('',*,*,#729,.T.);
#976=ORIENTED_EDGE('',*,*,#730,.F.);
#977=ORIENTED_EDGE('',*,*,#731,.F.);
#978=ORIENTED_EDGE('',*,*,#714,.F.);
#979=ORIENTED_EDGE('',*,*,#731,.T.);
#980=ORIENTED_EDGE('',*,*,#732,.F.);
#981=ORIENTED_EDGE('',*,*,#733,.F.);
#982=ORIENTED_EDGE('',*,*,#715,.F.);
#983=ORIENTED_EDGE('',*,*,#733,.T.);
#984=ORIENTED_EDGE('',*,*,#734,.F.);
#985=ORIENTED_EDGE('',*,*,#735,.F.);
#986=ORIENTED_EDGE('',*,*,#716,.F.);
#987=ORIENTED_EDGE('',*,*,#735,.T.);
#988=ORIENTED_EDGE('',*,*,#736,.F.);
#989=ORIENTED_EDGE('',*,*,#729,.F.);
#990=ORIENTED_EDGE('',*,*,#736,.T.);
#991=ORIENTED_EDGE('',*,*,#734,.T.);
#992=ORIENTED_EDGE('',*,*,#732,.T.);
#993=ORIENTED_EDGE('',*,*,#730,.T.);
#994=ORIENTED_EDGE('',*,*,#709,.F.);
#995=ORIENTED_EDGE('',*,*,#737,.T.);
#996=ORIENTED_EDGE('',*,*,#738,.F.);
#997=ORIENTED_EDGE('',*,*,#739,.F.);
#998=ORIENTED_EDGE('',*,*,#710,.F.);
#999=ORIENTED_EDGE('',*,*,#739,.T.);
#1000=ORIENTED_EDGE('',*,*,#740,.F.);
#1001=ORIENTED_EDGE('',*,*,#741,.F.);
#1002=ORIENTED_EDGE('',*,*,#711,.F.);
#1003=ORIENTED_EDGE('',*,*,#741,.T.);
#1004=ORIENTED_EDGE('',*,*,#742,.F.);
#1005=ORIENTED_EDGE('',*,*,#743,.F.);
#1006=ORIENTED_EDGE('',*,*,#712,.F.);
#1007=ORIENTED_EDGE('',*,*,#743,.T.);
#1008=ORIENTED_EDGE('',*,*,#744,.F.);
#1009=ORIENTED_EDGE('',*,*,#737,.F.);
#1010=ORIENTED_EDGE('',*,*,#744,.T.);
#1011=ORIENTED_EDGE('',*,*,#742,.T.);
#1012=ORIENTED_EDGE('',*,*,#740,.T.);
#1013=ORIENTED_EDGE('',*,*,#738,.T.);
#1014=ORIENTED_EDGE('',*,*,#668,.T.);
#1015=ORIENTED_EDGE('',*,*,#674,.T.);
#1016=ORIENTED_EDGE('',*,*,#745,.T.);
#1017=ORIENTED_EDGE('',*,*,#650,.T.);
#1018=ORIENTED_EDGE('',*,*,#705,.F.);
#1019=ORIENTED_EDGE('',*,*,#746,.T.);
#1020=ORIENTED_EDGE('',*,*,#747,.F.);
#1021=ORIENTED_EDGE('',*,*,#748,.F.);
#1022=ORIENTED_EDGE('',*,*,#706,.F.);
#1023=ORIENTED_EDGE('',*,*,#748,.T.);
#1024=ORIENTED_EDGE('',*,*,#749,.F.);
#1025=ORIENTED_EDGE('',*,*,#750,.F.);
#1026=ORIENTED_EDGE('',*,*,#707,.F.);
#1027=ORIENTED_EDGE('',*,*,#750,.T.);
#1028=ORIENTED_EDGE('',*,*,#751,.F.);
#1029=ORIENTED_EDGE('',*,*,#752,.F.);
#1030=ORIENTED_EDGE('',*,*,#708,.F.);
#1031=ORIENTED_EDGE('',*,*,#752,.T.);
#1032=ORIENTED_EDGE('',*,*,#753,.F.);
#1033=ORIENTED_EDGE('',*,*,#746,.F.);
#1034=ORIENTED_EDGE('',*,*,#753,.T.);
#1035=ORIENTED_EDGE('',*,*,#751,.T.);
#1036=ORIENTED_EDGE('',*,*,#749,.T.);
#1037=ORIENTED_EDGE('',*,*,#747,.T.);
#1038=ORIENTED_EDGE('',*,*,#703,.F.);
#1039=ORIENTED_EDGE('',*,*,#666,.T.);
#1040=ORIENTED_EDGE('',*,*,#754,.F.);
#1041=ORIENTED_EDGE('',*,*,#651,.F.);
#1042=ORIENTED_EDGE('',*,*,#745,.F.);
#1043=ORIENTED_EDGE('',*,*,#673,.F.);
#1044=ORIENTED_EDGE('',*,*,#704,.F.);
#1045=ORIENTED_EDGE('',*,*,#653,.T.);
#1046=ORIENTED_EDGE('',*,*,#755,.F.);
#1047=ORIENTED_EDGE('',*,*,#756,.F.);
#1048=ORIENTED_EDGE('',*,*,#756,.T.);
#1049=ORIENTED_EDGE('',*,*,#757,.F.);
#1050=ORIENTED_EDGE('',*,*,#664,.F.);
#1051=ORIENTED_EDGE('',*,*,#702,.F.);
#1052=ORIENTED_EDGE('',*,*,#676,.F.);
#1053=ORIENTED_EDGE('',*,*,#665,.T.);
#1054=ORIENTED_EDGE('',*,*,#757,.T.);
#1055=ORIENTED_EDGE('',*,*,#755,.T.);
#1056=ORIENTED_EDGE('',*,*,#652,.T.);
#1057=ORIENTED_EDGE('',*,*,#754,.T.);
#1058=CONICAL_SURFACE('',#1142,4.,0.0523598775598299);
#1059=STYLED_ITEM('',(#1822),#1066);
#1060=STYLED_ITEM('',(#1822),#1067);
#1061=STYLED_ITEM('',(#1823),#1077);
#1062=STYLED_ITEM('',(#1823),#1078);
#1063=STYLED_ITEM('',(#1823),#1079);
#1064=STYLED_ITEM('',(#1823),#1080);
#1065=STYLED_ITEM('',(#1821),#13);
#1066=ADVANCED_FACE('',(#83),#1058,.T.);
#1067=ADVANCED_FACE('',(#84),#22,.T.);
#1068=ADVANCED_FACE('',(#85),#23,.T.);
#1069=ADVANCED_FACE('',(#86),#24,.T.);
#1070=ADVANCED_FACE('',(#87),#25,.T.);
#1071=ADVANCED_FACE('',(#88),#26,.T.);
#1072=ADVANCED_FACE('',(#89,#14),#27,.F.);
#1073=ADVANCED_FACE('',(#90),#28,.T.);
#1074=ADVANCED_FACE('',(#91),#29,.T.);
#1075=ADVANCED_FACE('',(#92),#30,.T.);
#1076=ADVANCED_FACE('',(#93),#31,.T.);
#1077=ADVANCED_FACE('',(#94),#32,.T.);
#1078=ADVANCED_FACE('',(#95),#33,.T.);
#1079=ADVANCED_FACE('',(#96),#34,.T.);
#1080=ADVANCED_FACE('',(#97),#35,.T.);
#1081=ADVANCED_FACE('',(#98),#36,.T.);
#1082=ADVANCED_FACE('',(#99),#37,.T.);
#1083=ADVANCED_FACE('',(#100),#38,.T.);
#1084=ADVANCED_FACE('',(#101),#39,.T.);
#1085=ADVANCED_FACE('',(#102),#40,.T.);
#1086=ADVANCED_FACE('',(#103,#15),#41,.T.);
#1087=ADVANCED_FACE('',(#104),#42,.F.);
#1088=ADVANCED_FACE('',(#105),#43,.F.);
#1089=ADVANCED_FACE('',(#106),#44,.T.);
#1090=ADVANCED_FACE('',(#107),#45,.T.);
#1091=ADVANCED_FACE('',(#108),#46,.T.);
#1092=ADVANCED_FACE('',(#109),#47,.T.);
#1093=ADVANCED_FACE('',(#110),#48,.T.);
#1094=ADVANCED_FACE('',(#111),#49,.T.);
#1095=ADVANCED_FACE('',(#112),#50,.T.);
#1096=ADVANCED_FACE('',(#113),#51,.T.);
#1097=ADVANCED_FACE('',(#114),#52,.T.);
#1098=ADVANCED_FACE('',(#115),#53,.T.);
#1099=ADVANCED_FACE('',(#116),#54,.T.);
#1100=ADVANCED_FACE('',(#117),#55,.T.);
#1101=ADVANCED_FACE('',(#118),#56,.T.);
#1102=ADVANCED_FACE('',(#119,#16,#17,#18,#19,#20,#21),#57,.F.);
#1103=ADVANCED_FACE('',(#120),#58,.T.);
#1104=ADVANCED_FACE('',(#121),#59,.T.);
#1105=ADVANCED_FACE('',(#122),#60,.T.);
#1106=ADVANCED_FACE('',(#123),#61,.T.);
#1107=ADVANCED_FACE('',(#124),#62,.T.);
#1108=ADVANCED_FACE('',(#125),#63,.T.);
#1109=ADVANCED_FACE('',(#126),#64,.T.);
#1110=ADVANCED_FACE('',(#127),#65,.T.);
#1111=ADVANCED_FACE('',(#128),#66,.T.);
#1112=ADVANCED_FACE('',(#129),#67,.T.);
#1113=ADVANCED_FACE('',(#130),#68,.T.);
#1114=ADVANCED_FACE('',(#131),#69,.T.);
#1115=ADVANCED_FACE('',(#132),#70,.T.);
#1116=ADVANCED_FACE('',(#133),#71,.T.);
#1117=ADVANCED_FACE('',(#134),#72,.T.);
#1118=ADVANCED_FACE('',(#135),#73,.T.);
#1119=ADVANCED_FACE('',(#136),#74,.T.);
#1120=ADVANCED_FACE('',(#137),#75,.T.);
#1121=ADVANCED_FACE('',(#138),#76,.T.);
#1122=ADVANCED_FACE('',(#139),#77,.T.);
#1123=ADVANCED_FACE('',(#140),#78,.T.);
#1124=ADVANCED_FACE('',(#141),#79,.T.);
#1125=ADVANCED_FACE('',(#142),#80,.T.);
#1126=ADVANCED_FACE('',(#143),#81,.T.);
#1127=ADVANCED_FACE('',(#144),#82,.T.);
#1128=CLOSED_SHELL('',(#1066,#1067,#1068,#1069,#1070,#1071,#1072,#1073,
#1074,#1075,#1076,#1077,#1078,#1079,#1080,#1081,#1082,#1083,#1084,#1085,
#1086,#1087,#1088,#1089,#1090,#1091,#1092,#1093,#1094,#1095,#1096,#1097,
#1098,#1099,#1100,#1101,#1102,#1103,#1104,#1105,#1106,#1107,#1108,#1109,
#1110,#1111,#1112,#1113,#1114,#1115,#1116,#1117,#1118,#1119,#1120,#1121,
#1122,#1123,#1124,#1125,#1126,#1127));
#1129=DERIVED_UNIT_ELEMENT(#1131,1.);
#1130=DERIVED_UNIT_ELEMENT(#1806,-3.);
#1131=(
MASS_UNIT()
NAMED_UNIT(*)
SI_UNIT(.KILO.,.GRAM.)
);
#1132=DERIVED_UNIT((#1129,#1130));
#1133=MEASURE_REPRESENTATION_ITEM('density measure',
POSITIVE_RATIO_MEASURE(7850.),#1132);
#1134=PROPERTY_DEFINITION_REPRESENTATION(#1139,#1136);
#1135=PROPERTY_DEFINITION_REPRESENTATION(#1140,#1137);
#1136=REPRESENTATION('material name',(#1138),#1803);
#1137=REPRESENTATION('density',(#1133),#1803);
#1138=DESCRIPTIVE_REPRESENTATION_ITEM('Steel','Steel');
#1139=PROPERTY_DEFINITION('material property','material name',#1813);
#1140=PROPERTY_DEFINITION('material property','density of part',#1813);
#1141=AXIS2_PLACEMENT_3D('',#1490,#1209,#1210);
#1142=AXIS2_PLACEMENT_3D('',#1491,#1211,#1212);
#1143=AXIS2_PLACEMENT_3D('',#1493,#1213,#1214);
#1144=AXIS2_PLACEMENT_3D('',#1497,#1216,#1217);
#1145=AXIS2_PLACEMENT_3D('',#1499,#1218,#1219);
#1146=AXIS2_PLACEMENT_3D('',#1501,#1220,#1221);
#1147=AXIS2_PLACEMENT_3D('',#1502,#1222,#1223);
#1148=AXIS2_PLACEMENT_3D('',#1503,#1224,#1225);
#1149=AXIS2_PLACEMENT_3D('',#1504,#1226,#1227);
#1150=AXIS2_PLACEMENT_3D('',#1508,#1230,#1231);
#1151=AXIS2_PLACEMENT_3D('',#1512,#1234,#1235);
#1152=AXIS2_PLACEMENT_3D('',#1516,#1238,#1239);
#1153=AXIS2_PLACEMENT_3D('',#1520,#1242,#1243);
#1154=AXIS2_PLACEMENT_3D('',#1537,#1252,#1253);
#1155=AXIS2_PLACEMENT_3D('',#1540,#1256,#1257);
#1156=AXIS2_PLACEMENT_3D('',#1542,#1259,#1260);
#1157=AXIS2_PLACEMENT_3D('',#1544,#1262,#1263);
#1158=AXIS2_PLACEMENT_3D('',#1545,#1264,#1265);
#1159=AXIS2_PLACEMENT_3D('',#1551,#1269,#1270);
#1160=AXIS2_PLACEMENT_3D('',#1555,#1273,#1274);
#1161=AXIS2_PLACEMENT_3D('',#1559,#1277,#1278);
#1162=AXIS2_PLACEMENT_3D('',#1561,#1280,#1281);
#1163=AXIS2_PLACEMENT_3D('',#1570,#1286,#1287);
#1164=AXIS2_PLACEMENT_3D('',#1576,#1291,#1292);
#1165=AXIS2_PLACEMENT_3D('',#1588,#1299,#1300);
#1166=AXIS2_PLACEMENT_3D('',#1597,#1305,#1306);
#1167=AXIS2_PLACEMENT_3D('',#1603,#1310,#1311);
#1168=AXIS2_PLACEMENT_3D('',#1615,#1318,#1319);
#1169=AXIS2_PLACEMENT_3D('',#1619,#1322,#1323);
#1170=AXIS2_PLACEMENT_3D('',#1623,#1326,#1327);
#1171=AXIS2_PLACEMENT_3D('',#1629,#1331,#1332);
#1172=AXIS2_PLACEMENT_3D('',#1635,#1336,#1337);
#1173=AXIS2_PLACEMENT_3D('',#1644,#1342,#1343);
#1174=AXIS2_PLACEMENT_3D('',#1650,#1347,#1348);
#1175=AXIS2_PLACEMENT_3D('',#1656,#1352,#1353);
#1176=AXIS2_PLACEMENT_3D('',#1659,#1356,#1357);
#1177=AXIS2_PLACEMENT_3D('',#1660,#1358,#1359);
#1178=AXIS2_PLACEMENT_3D('',#1669,#1364,#1365);
#1179=AXIS2_PLACEMENT_3D('',#1675,#1369,#1370);
#1180=AXIS2_PLACEMENT_3D('',#1681,#1374,#1375);
#1181=AXIS2_PLACEMENT_3D('',#1684,#1378,#1379);
#1182=AXIS2_PLACEMENT_3D('',#1685,#1380,#1381);
#1183=AXIS2_PLACEMENT_3D('',#1687,#1383,#1384);
#1184=AXIS2_PLACEMENT_3D('',#1722,#1403,#1404);
#1185=AXIS2_PLACEMENT_3D('',#1728,#1408,#1409);
#1186=AXIS2_PLACEMENT_3D('',#1732,#1412,#1413);
#1187=AXIS2_PLACEMENT_3D('',#1736,#1416,#1417);
#1188=AXIS2_PLACEMENT_3D('',#1738,#1419,#1420);
#1189=AXIS2_PLACEMENT_3D('',#1739,#1421,#1422);
#1190=AXIS2_PLACEMENT_3D('',#1745,#1426,#1427);
#1191=AXIS2_PLACEMENT_3D('',#1749,#1430,#1431);
#1192=AXIS2_PLACEMENT_3D('',#1753,#1434,#1435);
#1193=AXIS2_PLACEMENT_3D('',#1755,#1437,#1438);
#1194=AXIS2_PLACEMENT_3D('',#1756,#1439,#1440);
#1195=AXIS2_PLACEMENT_3D('',#1762,#1444,#1445);
#1196=AXIS2_PLACEMENT_3D('',#1766,#1448,#1449);
#1197=AXIS2_PLACEMENT_3D('',#1770,#1452,#1453);
#1198=AXIS2_PLACEMENT_3D('',#1772,#1455,#1456);
#1199=AXIS2_PLACEMENT_3D('',#1773,#1457,#1458);
#1200=AXIS2_PLACEMENT_3D('',#1775,#1460,#1461);
#1201=AXIS2_PLACEMENT_3D('',#1781,#1465,#1466);
#1202=AXIS2_PLACEMENT_3D('',#1785,#1469,#1470);
#1203=AXIS2_PLACEMENT_3D('',#1789,#1473,#1474);
#1204=AXIS2_PLACEMENT_3D('',#1791,#1476,#1477);
#1205=AXIS2_PLACEMENT_3D('',#1792,#1478,#1479);
#1206=AXIS2_PLACEMENT_3D('',#1794,#1481,#1482);
#1207=AXIS2_PLACEMENT_3D('',#1798,#1485,#1486);
#1208=AXIS2_PLACEMENT_3D('',#1800,#1488,#1489);
#1209=DIRECTION('axis',(0.,0.,1.));
#1210=DIRECTION('refdir',(1.,0.,0.));
#1211=DIRECTION('center_axis',(0.,1.,0.));
#1212=DIRECTION('ref_axis',(1.,0.,0.));
#1213=DIRECTION('center_axis',(0.,1.,0.));
#1214=DIRECTION('ref_axis',(1.,0.,0.));
#1215=DIRECTION('',(-0.0523359562429438,0.998629534754574,-6.40930612932371E-18));
#1216=DIRECTION('center_axis',(0.,1.,0.));
#1217=DIRECTION('ref_axis',(1.,0.,0.));
#1218=DIRECTION('center_axis',(0.,1.,0.));
#1219=DIRECTION('ref_axis',(1.,0.,0.));
#1220=DIRECTION('center_axis',(0.,1.,0.));
#1221=DIRECTION('ref_axis',(1.,0.,0.));
#1222=DIRECTION('center_axis',(0.,1.,0.));
#1223=DIRECTION('ref_axis',(1.,0.,0.));
#1224=DIRECTION('center_axis',(0.,-1.,0.));
#1225=DIRECTION('ref_axis',(1.,0.,0.));
#1226=DIRECTION('center_axis',(0.,-1.,0.));
#1227=DIRECTION('ref_axis',(0.,0.,-1.));
#1228=DIRECTION('',(-1.,0.,0.));
#1229=DIRECTION('',(0.,0.,-1.));
#1230=DIRECTION('center_axis',(0.,-1.,0.));
#1231=DIRECTION('ref_axis',(0.,0.,-1.));
#1232=DIRECTION('',(0.,0.,1.));
#1233=DIRECTION('',(-1.,0.,0.));
#1234=DIRECTION('center_axis',(0.,-1.,0.));
#1235=DIRECTION('ref_axis',(0.,0.,-1.));
#1236=DIRECTION('',(1.,0.,1.73472347597681E-16));
#1237=DIRECTION('',(0.,0.,1.));
#1238=DIRECTION('center_axis',(0.,-1.,0.));
#1239=DIRECTION('ref_axis',(0.,0.,-1.));
#1240=DIRECTION('',(0.,0.,-1.));
#1241=DIRECTION('',(1.,0.,1.73472347597681E-16));
#1242=DIRECTION('center_axis',(0.,-1.,0.));
#1243=DIRECTION('ref_axis',(0.,0.,-1.));
#1244=DIRECTION('',(0.,0.,1.));
#1245=DIRECTION('',(1.,0.,0.));
#1246=DIRECTION('',(0.,0.,-1.));
#1247=DIRECTION('',(-1.,0.,-1.73472347597681E-16));
#1248=DIRECTION('',(0.,0.,-1.));
#1249=DIRECTION('',(1.,0.,0.));
#1250=DIRECTION('',(0.,0.,1.));
#1251=DIRECTION('',(-1.,0.,0.));
#1252=DIRECTION('center_axis',(0.,0.,1.));
#1253=DIRECTION('ref_axis',(-1.,0.,0.));
#1254=DIRECTION('',(0.,-1.,0.));
#1255=DIRECTION('',(0.,-1.,0.));
#1256=DIRECTION('center_axis',(1.,0.,0.));
#1257=DIRECTION('ref_axis',(0.,0.,1.));
#1258=DIRECTION('',(0.,-1.,0.));
#1259=DIRECTION('center_axis',(1.73472347597681E-16,0.,-1.));
#1260=DIRECTION('ref_axis',(1.,0.,1.73472347597681E-16));
#1261=DIRECTION('',(0.,-1.,0.));
#1262=DIRECTION('center_axis',(-1.,0.,0.));
#1263=DIRECTION('ref_axis',(0.,0.,-1.));
#1264=DIRECTION('center_axis',(-1.,0.,0.));
#1265=DIRECTION('ref_axis',(0.,0.,-1.));
#1266=DIRECTION('',(0.,0.,1.));
#1267=DIRECTION('',(0.,-1.,0.));
#1268=DIRECTION('',(0.,-1.,0.));
#1269=DIRECTION('center_axis',(0.,0.,1.));
#1270=DIRECTION('ref_axis',(-1.,0.,0.));
#1271=DIRECTION('',(1.,0.,0.));
#1272=DIRECTION('',(0.,-1.,0.));
#1273=DIRECTION('center_axis',(1.,0.,0.));
#1274=DIRECTION('ref_axis',(0.,0.,1.));
#1275=DIRECTION('',(0.,0.,-1.));
#1276=DIRECTION('',(0.,-1.,0.));
#1277=DIRECTION('center_axis',(0.,0.,-1.));
#1278=DIRECTION('ref_axis',(1.,0.,0.));
#1279=DIRECTION('',(-1.,0.,0.));
#1280=DIRECTION('center_axis',(0.707106781186548,0.,-0.707106781186548));
#1281=DIRECTION('ref_axis',(-0.707106781186548,0.,-0.707106781186548));
#1282=DIRECTION('',(0.707106781186548,0.,0.707106781186548));
#1283=DIRECTION('',(0.,-1.,0.));
#1284=DIRECTION('',(-0.707106781186548,0.,-0.707106781186548));
#1285=DIRECTION('',(-9.25185853854296E-16,-1.,0.));
#1286=DIRECTION('center_axis',(1.,0.,0.));
#1287=DIRECTION('ref_axis',(0.,-1.,0.));
#1288=DIRECTION('',(0.,0.,-1.));
#1289=DIRECTION('',(0.,1.,0.));
#1290=DIRECTION('',(0.,0.,-1.));
#1291=DIRECTION('center_axis',(0.,1.,0.));
#1292=DIRECTION('ref_axis',(-1.,0.,0.));
#1293=DIRECTION('',(0.,0.,-1.));
#1294=DIRECTION('',(1.,0.,0.));
#1295=DIRECTION('',(0.,0.,1.));
#1296=DIRECTION('',(-1.,0.,0.));
#1297=DIRECTION('',(0.,0.,1.));
#1298=DIRECTION('',(1.,0.,0.));
#1299=DIRECTION('center_axis',(-0.707106781186548,0.,-0.707106781186548));
#1300=DIRECTION('ref_axis',(-0.707106781186548,0.,0.707106781186548));
#1301=DIRECTION('',(-0.707106781186548,0.,0.707106781186548));
#1302=DIRECTION('',(0.,1.,0.));
#1303=DIRECTION('',(0.707106781186548,0.,-0.707106781186548));
#1304=DIRECTION('',(0.,1.,0.));
#1305=DIRECTION('center_axis',(-1.,0.,0.));
#1306=DIRECTION('ref_axis',(0.,1.,0.));
#1307=DIRECTION('',(0.,0.,-1.));
#1308=DIRECTION('',(0.,-1.,0.));
#1309=DIRECTION('',(0.,0.,-1.));
#1310=DIRECTION('center_axis',(0.,-1.,0.));
#1311=DIRECTION('ref_axis',(1.,0.,0.));
#1312=DIRECTION('',(0.,0.,-1.));
#1313=DIRECTION('',(-1.,0.,0.));
#1314=DIRECTION('',(0.,0.,1.));
#1315=DIRECTION('',(1.,0.,0.));
#1316=DIRECTION('',(0.,0.,1.));
#1317=DIRECTION('',(1.,0.,0.));
#1318=DIRECTION('center_axis',(-1.,9.25185853854296E-16,0.));
#1319=DIRECTION('ref_axis',(-9.25185853854296E-16,-1.,0.));
#1320=DIRECTION('',(-9.25185853854296E-16,-1.,0.));
#1321=DIRECTION('',(0.,0.,1.));
#1322=DIRECTION('center_axis',(1.,0.,0.));
#1323=DIRECTION('ref_axis',(0.,1.,0.));
#1324=DIRECTION('',(0.,1.,0.));
#1325=DIRECTION('',(0.,0.,1.));
#1326=DIRECTION('center_axis',(0.,-1.,0.));
#1327=DIRECTION('ref_axis',(-1.,0.,0.));
#1328=DIRECTION('',(1.,0.,0.));
#1329=DIRECTION('',(0.,0.,-1.));
#1330=DIRECTION('',(-1.,0.,0.));
#1331=DIRECTION('center_axis',(0.,1.,0.));
#1332=DIRECTION('ref_axis',(1.,0.,0.));
#1333=DIRECTION('',(-1.,0.,0.));
#1334=DIRECTION('',(0.,0.,-1.));
#1335=DIRECTION('',(1.,0.,0.));
#1336=DIRECTION('center_axis',(0.,1.,0.));
#1337=DIRECTION('ref_axis',(1.,0.,0.));
#1338=DIRECTION('',(-1.,0.,0.));
#1339=DIRECTION('',(0.,0.,-1.));
#1340=DIRECTION('',(1.,0.,0.));
#1341=DIRECTION('',(0.,0.,-1.));
#1342=DIRECTION('center_axis',(-1.,0.,0.));
#1343=DIRECTION('ref_axis',(0.,1.,0.));
#1344=DIRECTION('',(0.,-1.,0.));
#1345=DIRECTION('',(0.,1.,0.));
#1346=DIRECTION('',(0.,0.,-1.));
#1347=DIRECTION('center_axis',(0.,-1.,0.));
#1348=DIRECTION('ref_axis',(-1.,0.,0.));
#1349=DIRECTION('',(1.,0.,0.));
#1350=DIRECTION('',(-1.,0.,0.));
#1351=DIRECTION('',(0.,0.,-1.));
#1352=DIRECTION('center_axis',(1.,0.,0.));
#1353=DIRECTION('ref_axis',(0.,-1.,0.));
#1354=DIRECTION('',(0.,1.,0.));
#1355=DIRECTION('',(0.,-1.,0.));
#1356=DIRECTION('center_axis',(0.,0.,-1.));
#1357=DIRECTION('ref_axis',(-1.,0.,0.));
#1358=DIRECTION('center_axis',(1.,0.,0.));
#1359=DIRECTION('ref_axis',(0.,-1.,0.));
#1360=DIRECTION('',(0.,1.,0.));
#1361=DIRECTION('',(0.,0.,-1.));
#1362=DIRECTION('',(0.,-1.,0.));
#1363=DIRECTION('',(0.,0.,-1.));
#1364=DIRECTION('center_axis',(0.,1.,0.));
#1365=DIRECTION('ref_axis',(1.,0.,0.));
#1366=DIRECTION('',(-1.,0.,0.));
#1367=DIRECTION('',(1.,0.,0.));
#1368=DIRECTION('',(0.,0.,-1.));
#1369=DIRECTION('center_axis',(-1.,0.,0.));
#1370=DIRECTION('ref_axis',(0.,1.,0.));
#1371=DIRECTION('',(0.,-1.,0.));
#1372=DIRECTION('',(0.,1.,0.));
#1373=DIRECTION('',(0.,0.,-1.));
#1374=DIRECTION('center_axis',(0.,-1.,0.));
#1375=DIRECTION('ref_axis',(-1.,0.,0.));
#1376=DIRECTION('',(1.,0.,0.));
#1377=DIRECTION('',(-1.,0.,0.));
#1378=DIRECTION('center_axis',(0.,0.,-1.));
#1379=DIRECTION('ref_axis',(-1.,0.,0.));
#1380=DIRECTION('center_axis',(0.,0.,-1.));
#1381=DIRECTION('ref_axis',(-1.,0.,0.));
#1382=DIRECTION('',(0.,-1.,0.));
#1383=DIRECTION('center_axis',(0.,0.,1.));
#1384=DIRECTION('ref_axis',(1.,0.,0.));
#1385=DIRECTION('',(0.,1.,0.));
#1386=DIRECTION('',(-1.94493074423541E-9,-1.,0.));
#1387=DIRECTION('',(-1.,0.,0.));
#1388=DIRECTION('',(0.,-1.,0.));
#1389=DIRECTION('',(1.,9.25185853854297E-16,0.));
#1390=DIRECTION('',(0.,1.,0.));
#1391=DIRECTION('',(-1.,0.,0.));
#1392=DIRECTION('',(0.,-1.,0.));
#1393=DIRECTION('',(1.,0.,0.));
#1394=DIRECTION('',(0.,1.,0.));
#1395=DIRECTION('',(-1.,0.,0.));
#1396=DIRECTION('',(0.,-1.,0.));
#1397=DIRECTION('',(1.,0.,0.));
#1398=DIRECTION('',(0.,1.,0.));
#1399=DIRECTION('',(0.,-1.,0.));
#1400=DIRECTION('',(1.,0.,0.));
#1401=DIRECTION('',(0.,1.,0.));
#1402=DIRECTION('',(-1.,0.,0.));
#1403=DIRECTION('center_axis',(-1.,0.,0.));
#1404=DIRECTION('ref_axis',(0.,1.,0.));
#1405=DIRECTION('',(0.,0.,-1.));
#1406=DIRECTION('',(0.,1.,0.));
#1407=DIRECTION('',(0.,0.,-1.));
#1408=DIRECTION('center_axis',(0.,-1.,0.));
#1409=DIRECTION('ref_axis',(-1.,0.,0.));
#1410=DIRECTION('',(-1.,0.,0.));
#1411=DIRECTION('',(0.,0.,-1.));
#1412=DIRECTION('center_axis',(1.,0.,0.));
#1413=DIRECTION('ref_axis',(0.,-1.,0.));
#1414=DIRECTION('',(0.,-1.,0.));
#1415=DIRECTION('',(0.,0.,-1.));
#1416=DIRECTION('center_axis',(0.,1.,0.));
#1417=DIRECTION('ref_axis',(1.,0.,0.));
#1418=DIRECTION('',(1.,0.,0.));
#1419=DIRECTION('center_axis',(0.,0.,-1.));
#1420=DIRECTION('ref_axis',(-1.,0.,0.));
#1421=DIRECTION('center_axis',(0.,1.,0.));
#1422=DIRECTION('ref_axis',(1.,0.,0.));
#1423=DIRECTION('',(0.,0.,-1.));
#1424=DIRECTION('',(1.,0.,0.));
#1425=DIRECTION('',(0.,0.,-1.));
#1426=DIRECTION('center_axis',(-1.,0.,0.));
#1427=DIRECTION('ref_axis',(0.,1.,0.));
#1428=DIRECTION('',(0.,1.,0.));
#1429=DIRECTION('',(0.,0.,-1.));
#1430=DIRECTION('center_axis',(0.,-1.,0.));
#1431=DIRECTION('ref_axis',(-1.,0.,0.));
#1432=DIRECTION('',(-1.,0.,0.));
#1433=DIRECTION('',(0.,0.,-1.));
#1434=DIRECTION('center_axis',(1.,0.,0.));
#1435=DIRECTION('ref_axis',(0.,-1.,0.));
#1436=DIRECTION('',(0.,-1.,0.));
#1437=DIRECTION('center_axis',(0.,0.,-1.));
#1438=DIRECTION('ref_axis',(-1.,0.,0.));
#1439=DIRECTION('center_axis',(0.,1.,0.));
#1440=DIRECTION('ref_axis',(1.,0.,0.));
#1441=DIRECTION('',(0.,0.,-1.));
#1442=DIRECTION('',(1.,0.,0.));
#1443=DIRECTION('',(0.,0.,-1.));
#1444=DIRECTION('center_axis',(-1.,0.,0.));
#1445=DIRECTION('ref_axis',(0.,1.,0.));
#1446=DIRECTION('',(0.,1.,0.));
#1447=DIRECTION('',(0.,0.,-1.));
#1448=DIRECTION('center_axis',(0.,-1.,0.));
#1449=DIRECTION('ref_axis',(-1.,0.,0.));
#1450=DIRECTION('',(-1.,0.,0.));
#1451=DIRECTION('',(0.,0.,-1.));
#1452=DIRECTION('center_axis',(1.,0.,0.));
#1453=DIRECTION('ref_axis',(0.,-1.,0.));
#1454=DIRECTION('',(0.,-1.,0.));
#1455=DIRECTION('center_axis',(0.,0.,-1.));
#1456=DIRECTION('ref_axis',(-1.,0.,0.));
#1457=DIRECTION('center_axis',(0.,0.,-1.));
#1458=DIRECTION('ref_axis',(-1.,0.,0.));
#1459=DIRECTION('',(0.,1.,0.));
#1460=DIRECTION('center_axis',(0.,1.,0.));
#1461=DIRECTION('ref_axis',(1.,0.,0.));
#1462=DIRECTION('',(0.,0.,-1.));
#1463=DIRECTION('',(1.,0.,0.));
#1464=DIRECTION('',(0.,0.,-1.));
#1465=DIRECTION('center_axis',(-1.,0.,0.));
#1466=DIRECTION('ref_axis',(0.,1.,0.));
#1467=DIRECTION('',(0.,1.,0.));
#1468=DIRECTION('',(0.,0.,-1.));
#1469=DIRECTION('center_axis',(9.25185853854297E-16,-1.,0.));
#1470=DIRECTION('ref_axis',(-1.,-9.25185853854297E-16,0.));
#1471=DIRECTION('',(-1.,-9.25185853854297E-16,0.));
#1472=DIRECTION('',(0.,0.,-1.));
#1473=DIRECTION('center_axis',(1.,0.,0.));
#1474=DIRECTION('ref_axis',(0.,-1.,0.));
#1475=DIRECTION('',(0.,-1.,0.));
#1476=DIRECTION('center_axis',(0.,0.,-1.));
#1477=DIRECTION('ref_axis',(-1.,0.,0.));
#1478=DIRECTION('center_axis',(-1.,0.,0.));
#1479=DIRECTION('ref_axis',(0.,-1.,0.));
#1480=DIRECTION('',(0.,-1.,0.));
#1481=DIRECTION('center_axis',(1.,-1.94493074423541E-9,0.));
#1482=DIRECTION('ref_axis',(1.94493074423541E-9,1.,0.));
#1483=DIRECTION('',(1.94493074423541E-9,1.,0.));
#1484=DIRECTION('',(0.,0.,1.));
#1485=DIRECTION('center_axis',(1.,0.,0.));
#1486=DIRECTION('ref_axis',(0.,1.,0.));
#1487=DIRECTION('',(0.,1.,0.));
#1488=DIRECTION('center_axis',(0.,0.,1.));
#1489=DIRECTION('ref_axis',(1.,0.,0.));
#1490=CARTESIAN_POINT('',(0.,0.,0.));
#1491=CARTESIAN_POINT('Origin',(0.,-12.,4.5));
#1492=CARTESIAN_POINT('',(-3.37110664860351,-24.,4.5));
#1493=CARTESIAN_POINT('Origin',(0.,-24.,4.5));
#1494=CARTESIAN_POINT('',(-4.,-12.,4.5));
#1495=CARTESIAN_POINT('',(-4.,-12.,4.5));
#1496=CARTESIAN_POINT('',(8.32667268468867E-16,-12.,0.500000000000001));
#1497=CARTESIAN_POINT('Origin',(0.,-12.,4.5));
#1498=CARTESIAN_POINT('',(4.,-12.,4.5));
#1499=CARTESIAN_POINT('Origin',(0.,-12.,4.5));
#1500=CARTESIAN_POINT('',(0.,-12.,8.5));
#1501=CARTESIAN_POINT('Origin',(0.,-12.,4.5));
#1502=CARTESIAN_POINT('Origin',(0.,-12.,4.5));
#1503=CARTESIAN_POINT('Origin',(0.,-24.,4.5));
#1504=CARTESIAN_POINT('Origin',(0.,-12.,4.5));
#1505=CARTESIAN_POINT('',(-4.,-12.,8.5));
#1506=CARTESIAN_POINT('',(2.,-12.,8.5));
#1507=CARTESIAN_POINT('',(-4.,-12.,6.5));
#1508=CARTESIAN_POINT('Origin',(0.,-12.,4.5));
#1509=CARTESIAN_POINT('',(4.,-12.,8.5));
#1510=CARTESIAN_POINT('',(4.,-12.,2.5));
#1511=CARTESIAN_POINT('',(2.,-12.,8.5));
#1512=CARTESIAN_POINT('Origin',(0.,-12.,4.5));
#1513=CARTESIAN_POINT('',(4.,-12.,0.500000000000002));
#1514=CARTESIAN_POINT('',(-2.,-12.,0.500000000000001));
#1515=CARTESIAN_POINT('',(4.,-12.,2.5));
#1516=CARTESIAN_POINT('Origin',(0.,-12.,4.5));
#1517=CARTESIAN_POINT('',(-4.,-12.,0.5));
#1518=CARTESIAN_POINT('',(-4.,-12.,6.5));
#1519=CARTESIAN_POINT('',(-2.,-12.,0.500000000000001));
#1520=CARTESIAN_POINT('Origin',(0.,-11.5,4.5));
#1521=CARTESIAN_POINT('',(-4.,-11.5,0.5));
#1522=CARTESIAN_POINT('',(-4.,-11.5,8.5));
#1523=CARTESIAN_POINT('',(-4.,-11.5,6.5));
#1524=CARTESIAN_POINT('',(4.,-11.5,8.5));
#1525=CARTESIAN_POINT('',(2.,-11.5,8.5));
#1526=CARTESIAN_POINT('',(4.,-11.5,0.500000000000002));
#1527=CARTESIAN_POINT('',(4.,-11.5,2.5));
#1528=CARTESIAN_POINT('',(-2.,-11.5,0.500000000000001));
#1529=CARTESIAN_POINT('',(-3.,-11.5,7.5));
#1530=CARTESIAN_POINT('',(-3.,-11.5,1.5));
#1531=CARTESIAN_POINT('',(-3.,-11.5,1.5));
#1532=CARTESIAN_POINT('',(3.,-11.5,1.5));
#1533=CARTESIAN_POINT('',(3.,-11.5,1.5));
#1534=CARTESIAN_POINT('',(3.,-11.5,7.5));
#1535=CARTESIAN_POINT('',(3.,-11.5,7.5));
#1536=CARTESIAN_POINT('',(-3.,-11.5,7.5));
#1537=CARTESIAN_POINT('Origin',(4.,-11.5,8.5));
#1538=CARTESIAN_POINT('',(-4.,-11.5,8.5));
#1539=CARTESIAN_POINT('',(4.,-11.5,8.5));
#1540=CARTESIAN_POINT('Origin',(4.,-11.5,0.500000000000002));
#1541=CARTESIAN_POINT('',(4.,-11.5,0.500000000000002));
#1542=CARTESIAN_POINT('Origin',(-4.,-11.5,0.5));
#1543=CARTESIAN_POINT('',(-4.,-11.5,0.5));
#1544=CARTESIAN_POINT('Origin',(-4.,-11.5,8.5));
#1545=CARTESIAN_POINT('Origin',(-3.,-6.,7.5));
#1546=CARTESIAN_POINT('',(-3.,-6.,1.5));
#1547=CARTESIAN_POINT('',(-3.,-6.,7.5));
#1548=CARTESIAN_POINT('',(-3.,-6.,3.75));
#1549=CARTESIAN_POINT('',(-3.,-6.,1.5));
#1550=CARTESIAN_POINT('',(-3.,-6.,7.5));
#1551=CARTESIAN_POINT('Origin',(3.,-6.,7.5));
#1552=CARTESIAN_POINT('',(3.,-6.,7.5));
#1553=CARTESIAN_POINT('',(-0.5,-6.,7.5));
#1554=CARTESIAN_POINT('',(3.,-6.,7.5));
#1555=CARTESIAN_POINT('Origin',(3.,-6.,1.5));
#1556=CARTESIAN_POINT('',(3.,-6.,1.5));
#1557=CARTESIAN_POINT('',(3.,-6.,0.75));
#1558=CARTESIAN_POINT('',(3.,-6.,1.5));
#1559=CARTESIAN_POINT('Origin',(-3.,-6.,1.5));
#1560=CARTESIAN_POINT('',(-3.5,-6.,1.5));
#1561=CARTESIAN_POINT('Origin',(-2.7,3.,-2.));
#1562=CARTESIAN_POINT('',(-3.,6.,-2.3));
#1563=CARTESIAN_POINT('',(-2.4,6.,-1.7));
#1564=CARTESIAN_POINT('',(-0.524999994165207,6.,0.175000005834791));
#1565=CARTESIAN_POINT('',(-2.4,5.4,-1.7));
#1566=CARTESIAN_POINT('',(-2.4,3.,-1.7));
#1567=CARTESIAN_POINT('',(-3.,5.4,-2.3));
#1568=CARTESIAN_POINT('',(-2.125,5.4,-1.425));
#1569=CARTESIAN_POINT('',(-3.,2.7,-2.3));
#1570=CARTESIAN_POINT('Origin',(-2.4,6.,0.));
#1571=CARTESIAN_POINT('',(-2.4,6.,0.));
#1572=CARTESIAN_POINT('',(-2.4,6.,0.));
#1573=CARTESIAN_POINT('',(-2.4,5.4,0.));
#1574=CARTESIAN_POINT('',(-2.4,3.,0.));
#1575=CARTESIAN_POINT('',(-2.4,5.4,0.));
#1576=CARTESIAN_POINT('Origin',(4.00000002333917,6.,0.));
#1577=CARTESIAN_POINT('',(-3.,6.,-6.));
#1578=CARTESIAN_POINT('',(-3.,6.,-3.));
#1579=CARTESIAN_POINT('',(-4.,6.,-6.));
#1580=CARTESIAN_POINT('',(-4.,6.,-6.));
#1581=CARTESIAN_POINT('',(-4.,6.,8.5));
#1582=CARTESIAN_POINT('',(-4.,6.,0.));
#1583=CARTESIAN_POINT('',(4.00000002333917,6.,8.5));
#1584=CARTESIAN_POINT('',(-4.,6.,8.5));
#1585=CARTESIAN_POINT('',(4.00000002333917,6.,0.));
#1586=CARTESIAN_POINT('',(4.00000002333917,6.,0.));
#1587=CARTESIAN_POINT('',(-4.,6.,0.));
#1588=CARTESIAN_POINT('Origin',(2.7,-3.,-2.));
#1589=CARTESIAN_POINT('',(3.,-6.,-2.3));
#1590=CARTESIAN_POINT('',(2.4,-6.,-1.7));
#1591=CARTESIAN_POINT('',(0.524999999999999,-6.,0.174999999999999));
#1592=CARTESIAN_POINT('',(2.4,-5.4,-1.7));
#1593=CARTESIAN_POINT('',(2.4,-3.,-1.7));
#1594=CARTESIAN_POINT('',(3.,-5.4,-2.3));
#1595=CARTESIAN_POINT('',(2.125,-5.4,-1.425));
#1596=CARTESIAN_POINT('',(3.,-2.7,-2.3));
#1597=CARTESIAN_POINT('Origin',(2.4,-6.,0.));
#1598=CARTESIAN_POINT('',(2.4,-6.,0.));
#1599=CARTESIAN_POINT('',(2.4,-6.,0.));
#1600=CARTESIAN_POINT('',(2.4,-5.4,0.));
#1601=CARTESIAN_POINT('',(2.4,-3.,0.));
#1602=CARTESIAN_POINT('',(2.4,-5.4,0.));
#1603=CARTESIAN_POINT('Origin',(-4.,-6.,0.));
#1604=CARTESIAN_POINT('',(3.,-6.,-6.));
#1605=CARTESIAN_POINT('',(3.,-6.,-3.));
#1606=CARTESIAN_POINT('',(4.,-6.,-6.));
#1607=CARTESIAN_POINT('',(4.,-6.,-6.));
#1608=CARTESIAN_POINT('',(4.,-6.,8.5));
#1609=CARTESIAN_POINT('',(4.,-6.,0.));
#1610=CARTESIAN_POINT('',(-4.,-6.,8.5));
#1611=CARTESIAN_POINT('',(-4.,-6.,8.5));
#1612=CARTESIAN_POINT('',(-4.,-6.,0.));
#1613=CARTESIAN_POINT('',(-4.,-6.,0.));
#1614=CARTESIAN_POINT('',(-4.,-6.,0.));
#1615=CARTESIAN_POINT('Origin',(-3.,6.,-6.));
#1616=CARTESIAN_POINT('',(-3.,5.4,-6.));
#1617=CARTESIAN_POINT('',(-3.,5.85,-6.));
#1618=CARTESIAN_POINT('',(-3.,5.4,-3.));
#1619=CARTESIAN_POINT('Origin',(3.,-6.,-6.));
#1620=CARTESIAN_POINT('',(3.,-5.4,-6.));
#1621=CARTESIAN_POINT('',(3.,-5.85,-6.));
#1622=CARTESIAN_POINT('',(3.,-5.4,-3.));
#1623=CARTESIAN_POINT('Origin',(-2.4,5.4,0.));
#1624=CARTESIAN_POINT('',(-4.,5.4,0.));
#1625=CARTESIAN_POINT('',(-1.19999999416521,5.4,0.));
#1626=CARTESIAN_POINT('',(-4.,5.4,-6.));
#1627=CARTESIAN_POINT('',(-4.,5.4,0.));
#1628=CARTESIAN_POINT('',(-2.4,5.4,-6.));
#1629=CARTESIAN_POINT('Origin',(2.4,-5.4,0.));
#1630=CARTESIAN_POINT('',(4.,-5.4,0.));
#1631=CARTESIAN_POINT('',(1.20000000583479,-5.4,0.));
#1632=CARTESIAN_POINT('',(4.,-5.4,-6.));
#1633=CARTESIAN_POINT('',(4.,-5.4,0.));
#1634=CARTESIAN_POINT('',(2.4,-5.4,-6.));
#1635=CARTESIAN_POINT('Origin',(-1.8,0.5,0.));
#1636=CARTESIAN_POINT('',(-1.2000000134,0.5,0.));
#1637=CARTESIAN_POINT('',(-1.8,0.5,0.));
#1638=CARTESIAN_POINT('',(-0.899999994165208,0.5,0.));
#1639=CARTESIAN_POINT('',(-1.2000000134,0.5,-6.));
#1640=CARTESIAN_POINT('',(-1.2000000134,0.5,0.));
#1641=CARTESIAN_POINT('',(-1.8,0.5,-6.));
#1642=CARTESIAN_POINT('',(-1.2000000134,0.5,-6.));
#1643=CARTESIAN_POINT('',(-1.8,0.5,0.));
#1644=CARTESIAN_POINT('Origin',(-1.8,-0.5,0.));
#1645=CARTESIAN_POINT('',(-1.8,-0.5,0.));
#1646=CARTESIAN_POINT('',(-1.8,-0.25,0.));
#1647=CARTESIAN_POINT('',(-1.8,-0.5,-6.));
#1648=CARTESIAN_POINT('',(-1.8,0.5,-6.));
#1649=CARTESIAN_POINT('',(-1.8,-0.5,0.));
#1650=CARTESIAN_POINT('Origin',(-1.2000000134,-0.5,0.));
#1651=CARTESIAN_POINT('',(-1.2000000134,-0.5,0.));
#1652=CARTESIAN_POINT('',(-0.600000000865208,-0.5,0.));
#1653=CARTESIAN_POINT('',(-1.2000000134,-0.5,-6.));
#1654=CARTESIAN_POINT('',(-1.8,-0.5,-6.));
#1655=CARTESIAN_POINT('',(-1.2000000134,-0.5,0.));
#1656=CARTESIAN_POINT('Origin',(-1.2000000134,0.5,0.));
#1657=CARTESIAN_POINT('',(-1.2000000134,0.25,0.));
#1658=CARTESIAN_POINT('',(-1.2000000134,-0.5,-6.));
#1659=CARTESIAN_POINT('Origin',(-1.5000000067,0.,-6.));
#1660=CARTESIAN_POINT('Origin',(1.8,3.5,0.));
#1661=CARTESIAN_POINT('',(1.8,2.5,0.));
#1662=CARTESIAN_POINT('',(1.8,3.5,0.));
#1663=CARTESIAN_POINT('',(1.8,1.75,0.));
#1664=CARTESIAN_POINT('',(1.8,2.5,-6.));
#1665=CARTESIAN_POINT('',(1.8,2.5,0.));
#1666=CARTESIAN_POINT('',(1.8,3.5,-6.));
#1667=CARTESIAN_POINT('',(1.8,3.5,-6.));
#1668=CARTESIAN_POINT('',(1.8,3.5,0.));
#1669=CARTESIAN_POINT('Origin',(1.2,3.5,0.));
#1670=CARTESIAN_POINT('',(1.2,3.5,0.));
#1671=CARTESIAN_POINT('',(0.600000005834792,3.5,0.));
#1672=CARTESIAN_POINT('',(1.2,3.5,-6.));
#1673=CARTESIAN_POINT('',(1.2,3.5,-6.));
#1674=CARTESIAN_POINT('',(1.2,3.5,0.));
#1675=CARTESIAN_POINT('Origin',(1.2,2.5,0.));
#1676=CARTESIAN_POINT('',(1.2,2.5,0.));
#1677=CARTESIAN_POINT('',(1.2,1.25,0.));
#1678=CARTESIAN_POINT('',(1.2,2.5,-6.));
#1679=CARTESIAN_POINT('',(1.2,2.5,-6.));
#1680=CARTESIAN_POINT('',(1.2,2.5,0.));
#1681=CARTESIAN_POINT('Origin',(1.8,2.5,0.));
#1682=CARTESIAN_POINT('',(0.900000005834792,2.5,0.));
#1683=CARTESIAN_POINT('',(1.8,2.5,-6.));
#1684=CARTESIAN_POINT('Origin',(1.5,3.,-6.));
#1685=CARTESIAN_POINT('Origin',(3.2,-5.7,-6.));
#1686=CARTESIAN_POINT('',(4.,-5.4,-6.));
#1687=CARTESIAN_POINT('Origin',(1.16695841878567E-8,0.,0.));
#1688=CARTESIAN_POINT('',(-4.,5.4,0.));
#1689=CARTESIAN_POINT('',(4.00000002333917,6.,0.));
#1690=CARTESIAN_POINT('',(1.8,-2.5,0.));
#1691=CARTESIAN_POINT('',(1.2,-2.5,0.));
#1692=CARTESIAN_POINT('',(0.600000005834792,-2.5,0.));
#1693=CARTESIAN_POINT('',(1.2,-3.5,0.));
#1694=CARTESIAN_POINT('',(1.2,-1.75,0.));
#1695=CARTESIAN_POINT('',(1.8,-3.5,0.));
#1696=CARTESIAN_POINT('',(0.900000005834794,-3.5,0.));
#1697=CARTESIAN_POINT('',(1.8,-1.25,0.));
#1698=CARTESIAN_POINT('',(-1.2,3.5,0.));
#1699=CARTESIAN_POINT('',(-1.8,3.5,0.));
#1700=CARTESIAN_POINT('',(-0.899999994165208,3.5,0.));
#1701=CARTESIAN_POINT('',(-1.8,2.5,0.));
#1702=CARTESIAN_POINT('',(-1.8,1.25,0.));
#1703=CARTESIAN_POINT('',(-1.2,2.5,0.));
#1704=CARTESIAN_POINT('',(-0.599999994165208,2.5,0.));
#1705=CARTESIAN_POINT('',(-1.2,1.75,0.));
#1706=CARTESIAN_POINT('',(-1.2,-2.5,0.));
#1707=CARTESIAN_POINT('',(-1.8,-2.5,0.));
#1708=CARTESIAN_POINT('',(-0.899999994165208,-2.5,0.));
#1709=CARTESIAN_POINT('',(-1.8,-3.5,0.));
#1710=CARTESIAN_POINT('',(-1.8,-1.75,0.));
#1711=CARTESIAN_POINT('',(-1.2,-3.5,0.));
#1712=CARTESIAN_POINT('',(-0.599999994165208,-3.5,0.));
#1713=CARTESIAN_POINT('',(-1.2,-1.25,0.));
#1714=CARTESIAN_POINT('',(1.2,0.5,0.));
#1715=CARTESIAN_POINT('',(1.2,-0.5,0.));
#1716=CARTESIAN_POINT('',(1.2,-0.25,0.));
#1717=CARTESIAN_POINT('',(1.8,-0.5,0.));
#1718=CARTESIAN_POINT('',(0.900000005834792,-0.5,0.));
#1719=CARTESIAN_POINT('',(1.8,0.5,0.));
#1720=CARTESIAN_POINT('',(1.8,0.25,0.));
#1721=CARTESIAN_POINT('',(0.600000005834792,0.5,0.));
#1722=CARTESIAN_POINT('Origin',(1.2,-0.5,0.));
#1723=CARTESIAN_POINT('',(1.2,0.5,-6.));
#1724=CARTESIAN_POINT('',(1.2,0.5,0.));
#1725=CARTESIAN_POINT('',(1.2,-0.5,-6.));
#1726=CARTESIAN_POINT('',(1.2,-0.5,-6.));
#1727=CARTESIAN_POINT('',(1.2,-0.5,0.));
#1728=CARTESIAN_POINT('Origin',(1.8,-0.5,0.));
#1729=CARTESIAN_POINT('',(1.8,-0.5,-6.));
#1730=CARTESIAN_POINT('',(1.8,-0.5,-6.));
#1731=CARTESIAN_POINT('',(1.8,-0.5,0.));
#1732=CARTESIAN_POINT('Origin',(1.8,0.5,0.));
#1733=CARTESIAN_POINT('',(1.8,0.5,-6.));
#1734=CARTESIAN_POINT('',(1.8,0.5,-6.));
#1735=CARTESIAN_POINT('',(1.8,0.5,0.));
#1736=CARTESIAN_POINT('Origin',(1.2,0.5,0.));
#1737=CARTESIAN_POINT('',(1.2,0.5,-6.));
#1738=CARTESIAN_POINT('Origin',(1.5,0.,-6.));
#1739=CARTESIAN_POINT('Origin',(-1.8,-2.5,0.));
#1740=CARTESIAN_POINT('',(-1.2,-2.5,-6.));
#1741=CARTESIAN_POINT('',(-1.2,-2.5,0.));
#1742=CARTESIAN_POINT('',(-1.8,-2.5,-6.));
#1743=CARTESIAN_POINT('',(-1.2,-2.5,-6.));
#1744=CARTESIAN_POINT('',(-1.8,-2.5,0.));
#1745=CARTESIAN_POINT('Origin',(-1.8,-3.5,0.));
#1746=CARTESIAN_POINT('',(-1.8,-3.5,-6.));
#1747=CARTESIAN_POINT('',(-1.8,-2.5,-6.));
#1748=CARTESIAN_POINT('',(-1.8,-3.5,0.));
#1749=CARTESIAN_POINT('Origin',(-1.2,-3.5,0.));
#1750=CARTESIAN_POINT('',(-1.2,-3.5,-6.));
#1751=CARTESIAN_POINT('',(-1.8,-3.5,-6.));
#1752=CARTESIAN_POINT('',(-1.2,-3.5,0.));
#1753=CARTESIAN_POINT('Origin',(-1.2,-2.5,0.));
#1754=CARTESIAN_POINT('',(-1.2,-3.5,-6.));
#1755=CARTESIAN_POINT('Origin',(-1.5,-3.,-6.));
#1756=CARTESIAN_POINT('Origin',(-1.8,3.5,0.));
#1757=CARTESIAN_POINT('',(-1.2,3.5,-6.));
#1758=CARTESIAN_POINT('',(-1.2,3.5,0.));
#1759=CARTESIAN_POINT('',(-1.8,3.5,-6.));
#1760=CARTESIAN_POINT('',(-1.2,3.5,-6.));
#1761=CARTESIAN_POINT('',(-1.8,3.5,0.));
#1762=CARTESIAN_POINT('Origin',(-1.8,2.5,0.));
#1763=CARTESIAN_POINT('',(-1.8,2.5,-6.));
#1764=CARTESIAN_POINT('',(-1.8,3.5,-6.));
#1765=CARTESIAN_POINT('',(-1.8,2.5,0.));
#1766=CARTESIAN_POINT('Origin',(-1.2,2.5,0.));
#1767=CARTESIAN_POINT('',(-1.2,2.5,-6.));
#1768=CARTESIAN_POINT('',(-1.8,2.5,-6.));
#1769=CARTESIAN_POINT('',(-1.2,2.5,0.));
#1770=CARTESIAN_POINT('Origin',(-1.2,3.5,0.));
#1771=CARTESIAN_POINT('',(-1.2,2.5,-6.));
#1772=CARTESIAN_POINT('Origin',(-1.5,3.,-6.));
#1773=CARTESIAN_POINT('Origin',(-3.2,5.7,-6.));
#1774=CARTESIAN_POINT('',(-4.,5.4,-6.));
#1775=CARTESIAN_POINT('Origin',(1.2,-2.5,0.));
#1776=CARTESIAN_POINT('',(1.8,-2.5,-6.));
#1777=CARTESIAN_POINT('',(1.8,-2.5,0.));
#1778=CARTESIAN_POINT('',(1.2,-2.5,-6.));
#1779=CARTESIAN_POINT('',(1.8,-2.5,-6.));
#1780=CARTESIAN_POINT('',(1.2,-2.5,0.));
#1781=CARTESIAN_POINT('Origin',(1.2,-3.5,0.));
#1782=CARTESIAN_POINT('',(1.2,-3.5,-6.));
#1783=CARTESIAN_POINT('',(1.2,-2.5,-6.));
#1784=CARTESIAN_POINT('',(1.2,-3.5,0.));
#1785=CARTESIAN_POINT('Origin',(1.8,-3.5,0.));
#1786=CARTESIAN_POINT('',(1.8,-3.5,-6.));
#1787=CARTESIAN_POINT('',(1.2,-3.5,-6.));
#1788=CARTESIAN_POINT('',(1.8,-3.5,0.));
#1789=CARTESIAN_POINT('Origin',(1.8,-2.5,0.));
#1790=CARTESIAN_POINT('',(1.8,-3.5,-6.));
#1791=CARTESIAN_POINT('Origin',(1.5,-3.,-6.));
#1792=CARTESIAN_POINT('Origin',(-4.,6.,0.));
#1793=CARTESIAN_POINT('',(-4.,5.4,8.5));
#1794=CARTESIAN_POINT('Origin',(4.00000000116696,-5.4,0.));
#1795=CARTESIAN_POINT('',(4.,-5.4,8.5));
#1796=CARTESIAN_POINT('',(4.00000002333917,6.,8.5));
#1797=CARTESIAN_POINT('',(4.,-5.4,0.));
#1798=CARTESIAN_POINT('Origin',(4.,-6.,0.));
#1799=CARTESIAN_POINT('',(4.,-5.4,8.5));
#1800=CARTESIAN_POINT('Origin',(1.16695841878567E-8,0.,8.5));
#1801=UNCERTAINTY_MEASURE_WITH_UNIT(LENGTH_MEASURE(0.01),#1805,
'DISTANCE_ACCURACY_VALUE',
'Maximum model space distance between geometric entities at asserted c
onnectivities');
#1802=UNCERTAINTY_MEASURE_WITH_UNIT(LENGTH_MEASURE(0.01),#1805,
'DISTANCE_ACCURACY_VALUE',
'Maximum model space distance between geometric entities at asserted c
onnectivities');
#1803=(
GEOMETRIC_REPRESENTATION_CONTEXT(3)
GLOBAL_UNCERTAINTY_ASSIGNED_CONTEXT((#1801))
GLOBAL_UNIT_ASSIGNED_CONTEXT((#1805,#1807,#1808))
REPRESENTATION_CONTEXT('','3D')
);
#1804=(
GEOMETRIC_REPRESENTATION_CONTEXT(3)
GLOBAL_UNCERTAINTY_ASSIGNED_CONTEXT((#1802))
GLOBAL_UNIT_ASSIGNED_CONTEXT((#1805,#1807,#1808))
REPRESENTATION_CONTEXT('','3D')
);
#1805=(
LENGTH_UNIT()
NAMED_UNIT(*)
SI_UNIT(.MILLI.,.METRE.)
);
#1806=(
LENGTH_UNIT()
NAMED_UNIT(*)
SI_UNIT($,.METRE.)
);
#1807=(
NAMED_UNIT(*)
PLANE_ANGLE_UNIT()
SI_UNIT($,.RADIAN.)
);
#1808=(
NAMED_UNIT(*)
SI_UNIT($,.STERADIAN.)
SOLID_ANGLE_UNIT()
);
#1809=SHAPE_DEFINITION_REPRESENTATION(#1810,#1811);
#1810=PRODUCT_DEFINITION_SHAPE('',$,#1813);
#1811=SHAPE_REPRESENTATION('',(#1141),#1803);
#1812=PRODUCT_DEFINITION_CONTEXT('part definition',#1817,'design');
#1813=PRODUCT_DEFINITION('2026-09-19-21-20-41-820','switch',#1814,#1812);
#1814=PRODUCT_DEFINITION_FORMATION('',$,#1819);
#1815=PRODUCT_RELATED_PRODUCT_CATEGORY('switch','switch',(#1819));
#1816=APPLICATION_PROTOCOL_DEFINITION('international standard',
'automotive_design',2009,#1817);
#1817=APPLICATION_CONTEXT(
'Core Data for Automotive Mechanical Design Process');
#1818=PRODUCT_CONTEXT('part definition',#1817,'mechanical');
#1819=PRODUCT('2026-09-19-21-20-41-820','switch',$,(#1818));
#1820=PRESENTATION_STYLE_ASSIGNMENT((#1824));
#1821=PRESENTATION_STYLE_ASSIGNMENT((#1825));
#1822=PRESENTATION_STYLE_ASSIGNMENT((#1826));
#1823=PRESENTATION_STYLE_ASSIGNMENT((#1827));
#1824=SURFACE_STYLE_USAGE(.BOTH.,#1828);
#1825=SURFACE_STYLE_USAGE(.BOTH.,#1829);
#1826=SURFACE_STYLE_USAGE(.BOTH.,#1830);
#1827=SURFACE_STYLE_USAGE(.BOTH.,#1831);
#1828=SURFACE_SIDE_STYLE('',(#1832));
#1829=SURFACE_SIDE_STYLE('',(#1833));
#1830=SURFACE_SIDE_STYLE('',(#1834));
#1831=SURFACE_SIDE_STYLE('',(#1835));
#1832=SURFACE_STYLE_FILL_AREA(#1836);
#1833=SURFACE_STYLE_FILL_AREA(#1837);
#1834=SURFACE_STYLE_FILL_AREA(#1838);
#1835=SURFACE_STYLE_FILL_AREA(#1839);
#1836=FILL_AREA_STYLE('Steel - Satin',(#1840));
#1837=FILL_AREA_STYLE('Iron - Polished',(#1841));
#1838=FILL_AREA_STYLE('ABS (White)',(#1842));
#1839=FILL_AREA_STYLE('ABS (red)',(#1843));
#1840=FILL_AREA_STYLE_COLOUR('Steel - Satin',#1844);
#1841=FILL_AREA_STYLE_COLOUR('Iron - Polished',#1845);
#1842=FILL_AREA_STYLE_COLOUR('ABS (White)',#1846);
#1843=FILL_AREA_STYLE_COLOUR('ABS (red)',#1847);
#1844=COLOUR_RGB('Steel - Satin',0.627450980392157,0.627450980392157,0.627450980392157);
#1845=COLOUR_RGB('Iron - Polished',0.749019607843137,0.741176470588235,
0.733333333333333);
#1846=COLOUR_RGB('ABS (White)',0.964705882352941,0.964705882352941,0.952941176470588);
#1847=COLOUR_RGB('ABS (red)',0.843137254901961,0.0117647058823529,0.149019607843137);
ENDSEC;
END-ISO-10303-21;
